<svg xmlns="http://www.w3.org/2000/svg" viewBox="115.87 343.67 563.91 123.55" fill="#fff" fill-rule="nonzero">
<g transform="matrix(1,0,0,1,158.5884,371.2666)">
      <path d="M0,68.25C-1.851,68.25 -3.351,66.75 -3.351,64.899L-3.351,3.351C-3.351,1.5 -1.851,0 0,0C1.851,0 3.351,1.5 3.351,3.351L3.351,64.899C3.351,66.75 1.851,68.25 0,68.25"/>
  </g>
  <g transform="matrix(1,0,0,1,141.8623,384.8811)">
      <path d="M0,42.488C-1.851,42.488 -3.351,40.987 -3.351,39.136L-3.351,3.351C-3.351,1.5 -1.851,0 0,0C1.851,0 3.351,1.5 3.351,3.351L3.351,39.136C3.351,40.987 1.851,42.488 0,42.488"/>
  </g>
  <g transform="matrix(1,0,0,1,124.8438,399.38)">
      <path d="M0,12.663C-1.851,12.663 -3.351,11.163 -3.351,9.312L-3.351,3.35C-3.351,1.5 -1.851,0 0,0C1.851,0 3.351,1.5 3.351,3.35L3.351,9.312C3.351,11.163 1.851,12.663 0,12.663"/>
  </g>
  <g transform="matrix(1,0,0,1,192.0947,439.5166)">
      <path d="M0,-68.25C1.851,-68.25 3.351,-66.75 3.351,-64.899L3.351,-3.351C3.351,-1.5 1.851,0 0,0C-1.851,0 -3.351,-1.5 -3.351,-3.351L-3.351,-64.899C-3.351,-66.75 -1.851,-68.25 0,-68.25"/>
  </g>
  <g transform="matrix(1,0,0,1,175.6348,451.7192)">
      <path d="M0,-43.854C1.851,-43.854 3.351,-42.354 3.351,-40.503L3.351,-3.35C3.351,-1.5 1.851,0 0,0C-1.851,0 -3.351,-1.5 -3.351,-3.35L-3.351,-40.503C-3.351,-42.354 -1.851,-43.854 0,-43.854"/>
  </g>
  <g transform="matrix(1,0,0,1,208.8208,425.902)">
      <path d="M0,-42.487C1.851,-42.487 3.351,-40.987 3.351,-39.136L3.351,-3.35C3.351,-1.5 1.851,0 0,0C-1.851,0 -3.351,-1.5 -3.351,-3.35L-3.351,-39.136C-3.351,-40.987 -1.851,-42.487 0,-42.487"/>
  </g>
  <g transform="matrix(1,0,0,1,225.957,411.4037)">
      <path d="M0,-12.663C1.851,-12.663 3.351,-11.163 3.351,-9.312L3.351,-3.351C3.351,-1.5 1.851,0 0,0C-1.851,0 -3.351,-1.5 -3.351,-3.351L-3.351,-9.312C-3.351,-11.163 -1.851,-12.663 0,-12.663"/>
  </g>
  <g transform="matrix(0,-1,-1,0,158.6471,359.0812)">
      <path d="M-3.409,-3.409C-5.293,-3.409 -6.819,-1.883 -6.819,0C-6.819,1.882 -5.293,3.409 -3.409,3.409C-1.526,3.409 0,1.882 0,0C0,-1.883 -1.526,-3.409 -3.409,-3.409"/>
  </g>
  <g transform="matrix(0,-1,-1,0,192.1535,359.0812)">
      <path d="M-3.409,-3.409C-5.293,-3.409 -6.819,-1.883 -6.819,0C-6.819,1.882 -5.293,3.409 -3.409,3.409C-1.526,3.409 0,1.882 0,0C0,-1.883 -1.526,-3.409 -3.409,-3.409"/>
  </g>
  <g transform="matrix(0,-1,-1,0,158.6472,349.2907)">
      <path d="M-2.387,-2.387C-3.705,-2.387 -4.774,-1.319 -4.774,0C-4.774,1.318 -3.705,2.387 -2.387,2.387C-1.069,2.387 0,1.318 0,0C0,-1.319 -1.069,-2.387 -2.387,-2.387"/>
  </g>
  <g transform="matrix(0,-1,-1,0,141.8932,372.6203)">
      <path d="M-3.409,-3.409C-5.293,-3.409 -6.819,-1.883 -6.819,0C-6.819,1.882 -5.293,3.409 -3.409,3.409C-1.526,3.409 0,1.882 0,0C0,-1.883 -1.526,-3.409 -3.409,-3.409"/>
  </g>
  <g transform="matrix(0,-1,-1,0,141.8933,362.8298)">
      <path d="M-2.387,-2.387C-3.705,-2.387 -4.774,-1.319 -4.774,0C-4.774,1.318 -3.705,2.387 -2.387,2.387C-1.069,2.387 0,1.318 0,0C0,-1.319 -1.069,-2.387 -2.387,-2.387"/>
  </g>
  <g transform="matrix(0,-1,-1,0,124.904,387.3351)">
      <path d="M-3.409,-3.409C-5.293,-3.409 -6.819,-1.883 -6.819,0C-6.819,1.882 -5.293,3.409 -3.409,3.409C-1.526,3.409 0,1.882 0,0C0,-1.883 -1.526,-3.409 -3.409,-3.409"/>
  </g>
  <g transform="matrix(0,-1,-1,0,124.904,377.5451)">
      <path d="M-2.387,-2.387C-3.705,-2.387 -4.774,-1.319 -4.774,0C-4.774,1.318 -3.705,2.387 -2.387,2.387C-1.069,2.387 0,1.318 0,0C0,-1.319 -1.069,-2.387 -2.387,-2.387"/>
  </g>
  <g transform="matrix(0,-1,-1,0,226.0158,387.3351)">
      <path d="M-3.409,-3.409C-5.293,-3.409 -6.819,-1.883 -6.819,0C-6.819,1.882 -5.293,3.409 -3.409,3.409C-1.526,3.409 0,1.882 0,0C0,-1.883 -1.526,-3.409 -3.409,-3.409"/>
  </g>
  <g transform="matrix(0,-1,-1,0,226.0158,377.5451)">
      <path d="M-2.387,-2.387C-3.705,-2.387 -4.774,-1.319 -4.774,0C-4.774,1.318 -3.705,2.387 -2.387,2.387C-1.069,2.387 0,1.318 0,0C0,-1.319 -1.069,-2.387 -2.387,-2.387"/>
  </g>
  <g transform="matrix(0,1,1,0,226.0159,416.777)">
      <path d="M3.409,-3.409C1.526,-3.409 0.001,-1.883 0.001,-0.001C0.001,1.882 1.526,3.409 3.409,3.409C5.293,3.409 6.819,1.882 6.819,-0.001C6.819,-1.883 5.293,-3.409 3.409,-3.409"/>
  </g>
  <g transform="matrix(0,1,1,0,226.0154,428.6135)">
      <path d="M2.387,-2.387C1.069,-2.387 -0,-1.318 -0,0C-0,1.318 1.069,2.387 2.387,2.387C3.705,2.387 4.774,1.318 4.774,0C4.774,-1.318 3.705,-2.387 2.387,-2.387"/>
  </g>
  <g transform="matrix(0,1,1,0,124.9041,416.777)">
      <path d="M3.409,-3.409C1.526,-3.409 0.001,-1.883 0.001,-0.001C0.001,1.882 1.526,3.409 3.409,3.409C5.293,3.409 6.819,1.882 6.819,-0.001C6.819,-1.883 5.293,-3.409 3.409,-3.409"/>
  </g>
  <g transform="matrix(0,1,1,0,124.9036,428.6135)">
      <path d="M2.387,-2.387C1.069,-2.387 -0,-1.318 -0,0C-0,1.318 1.069,2.387 2.387,2.387C3.705,2.387 4.774,1.318 4.774,0C4.774,-1.318 3.705,-2.387 2.387,-2.387"/>
  </g>
  <g transform="matrix(0,-1,-1,0,208.8796,372.6203)">
      <path d="M-3.409,-3.409C-5.293,-3.409 -6.819,-1.883 -6.819,-0.001C-6.819,1.882 -5.293,3.409 -3.409,3.409C-1.526,3.409 0,1.882 0,-0.001C0,-1.883 -1.526,-3.409 -3.409,-3.409"/>
  </g>
  <g transform="matrix(0,-1,-1,0,209.9026,362.8298)">
      <path d="M-2.387,-2.387C-3.705,-2.387 -4.774,-1.319 -4.774,-0.001C-4.774,1.318 -3.705,2.387 -2.387,2.387C-1.069,2.387 0,1.318 0,-0.001C0,-1.319 -1.069,-2.387 -2.387,-2.387"/>
  </g>
  <g transform="matrix(0,1,1,0,208.8792,431.4347)">
      <path d="M3.41,-3.409C1.526,-3.409 0,-1.883 0,0.001C0,1.883 1.526,3.41 3.41,3.41C5.293,3.41 6.819,1.883 6.819,0.001C6.819,-1.883 5.293,-3.409 3.41,-3.409"/>
  </g>
  <g transform="matrix(0,1,1,0,208.8797,443.2707)">
      <path d="M2.387,-2.387C1.07,-2.387 -0,-1.319 -0,0C-0,1.318 1.07,2.387 2.387,2.387C3.705,2.387 4.774,1.318 4.774,0C4.774,-1.319 3.705,-2.387 2.387,-2.387"/>
  </g>
  <g transform="matrix(0,1,1,0,141.8026,431.4347)">
      <path d="M3.41,-3.409C1.526,-3.409 0,-1.882 0,0.001C0,1.884 1.526,3.41 3.41,3.41C5.293,3.41 6.819,1.884 6.819,0.001C6.819,-1.882 5.293,-3.409 3.41,-3.409"/>
  </g>
  <g transform="matrix(0,1,1,0,141.803,443.2707)">
      <path d="M2.387,-2.387C1.07,-2.387 -0,-1.318 -0,0C-0,1.318 1.07,2.387 2.387,2.387C3.705,2.387 4.774,1.318 4.774,0C4.774,-1.318 3.705,-2.387 2.387,-2.387"/>
  </g>
  <g transform="matrix(0,-1,-1,0,192.1535,349.2907)">
      <path d="M-2.387,-2.387C-3.705,-2.387 -4.774,-1.319 -4.774,0C-4.774,1.318 -3.705,2.387 -2.387,2.387C-1.069,2.387 0,1.318 0,0C0,-1.319 -1.069,-2.387 -2.387,-2.387"/>
  </g>
  <g transform="matrix(0,1,1,0,192.1537,444.9914)">
      <path d="M3.409,-3.41C1.526,-3.41 0,-1.883 0,-0C0,1.883 1.526,3.409 3.409,3.409C5.293,3.409 6.819,1.883 6.819,-0C6.819,-1.883 5.293,-3.41 3.409,-3.41"/>
  </g>
  <g transform="matrix(0,1,1,0,192.1531,456.8274)">
      <path d="M2.387,-2.387C1.069,-2.387 -0,-1.318 -0,0C-0,1.318 1.069,2.387 2.387,2.387C3.705,2.387 4.774,1.318 4.774,0C4.774,-1.318 3.705,-2.387 2.387,-2.387"/>
  </g>
  <g transform="matrix(0,1,1,0,158.6473,444.9914)">
      <path d="M3.409,-3.41C1.526,-3.41 0,-1.883 0,-0C0,1.883 1.526,3.409 3.409,3.409C5.293,3.409 6.819,1.883 6.819,-0C6.819,-1.883 5.293,-3.41 3.409,-3.41"/>
  </g>
  <g transform="matrix(0,1,1,0,158.6468,456.8274)">
      <path d="M2.387,-2.387C1.069,-2.387 -0,-1.318 -0,0C-0,1.318 1.069,2.387 2.387,2.387C3.705,2.387 4.774,1.318 4.774,0C4.774,-1.318 3.705,-2.387 2.387,-2.387"/>
  </g>
  <g transform="matrix(1,0,0,1,295.6904,392.7938)">
      <path d="M0,-23.514L-3.517,-24.378L-3.704,-23.993C-4.742,-21.858 -5.753,-19.734 -6.708,-17.68C-7.114,-16.81 -7.541,-15.897 -7.991,-14.941C-8.441,-13.983 -8.883,-13.032 -9.318,-12.089C-9.754,-11.144 -10.168,-10.228 -10.562,-9.342C-10.765,-8.881 -10.951,-8.452 -11.122,-8.047C-11.553,-8.983 -11.941,-9.79 -12.278,-10.454C-12.745,-11.373 -13.157,-12.161 -13.503,-12.795C-13.849,-13.428 -14.144,-13.983 -14.388,-14.458C-14.598,-14.866 -14.805,-15.317 -15.004,-15.8L-11.985,-23.073L-15.466,-24.005L-15.637,-23.56C-15.78,-23.189 -15.951,-22.776 -16.152,-22.316C-16.317,-21.93 -16.509,-21.485 -16.727,-20.982L-16.76,-20.906C-16.842,-20.717 -16.925,-20.522 -17.01,-20.321L-18.526,-24.004L-21.957,-23.069L-18.894,-15.844C-19.54,-14.315 -20.091,-13.069 -20.535,-12.139C-20.986,-11.194 -21.384,-10.406 -21.717,-9.795L-22.564,-8.253C-22.639,-8.118 -22.714,-7.977 -22.789,-7.83L-30.458,-24.382L-33.938,-23.512L-22.775,0.868L-22.307,-0.246C-21.854,-1.324 -21.382,-2.377 -20.904,-3.375C-20.427,-4.373 -19.932,-5.37 -19.432,-6.341C-18.925,-7.327 -18.424,-8.315 -17.93,-9.303C-17.597,-9.969 -17.266,-10.67 -16.943,-11.396L-11.085,0.753L0,-23.514Z"/>
  </g>
  <g transform="matrix(1,0,0,1,310.6851,389.1596)">
      <path d="M0,-17.248C1.168,-17.248 2.291,-17.021 3.334,-16.573C4.385,-16.123 5.318,-15.501 6.107,-14.726C6.895,-13.952 7.522,-13.028 7.971,-11.981C8.418,-10.936 8.645,-9.799 8.645,-8.602C8.645,-7.406 8.418,-6.277 7.972,-5.248C7.523,-4.214 6.896,-3.298 6.107,-2.523C5.318,-1.747 4.385,-1.125 3.334,-0.675C2.291,-0.227 1.169,-0 0,-0C-1.199,-0 -2.344,-0.227 -3.403,-0.676C-4.465,-1.125 -5.396,-1.746 -6.17,-2.519C-6.945,-3.294 -7.566,-4.212 -8.016,-5.247C-8.462,-6.277 -8.689,-7.406 -8.689,-8.602C-8.689,-9.799 -8.462,-10.936 -8.015,-11.981C-7.565,-13.031 -6.944,-13.955 -6.17,-14.729C-5.397,-15.502 -4.465,-16.123 -3.403,-16.572C-2.343,-17.02 -1.198,-17.248 0,-17.248M11.226,-3.847C11.862,-5.313 12.185,-6.913 12.185,-8.602C12.185,-10.262 11.862,-11.853 11.227,-13.334C10.593,-14.809 9.721,-16.121 8.635,-17.235C7.545,-18.353 6.242,-19.241 4.761,-19.874C3.278,-20.509 1.684,-20.831 0.021,-20.831C-1.67,-20.831 -3.273,-20.509 -4.742,-19.874C-6.205,-19.241 -7.514,-18.355 -8.631,-17.24C-9.748,-16.126 -10.636,-14.812 -11.271,-13.334C-11.906,-11.856 -12.229,-10.264 -12.229,-8.602C-12.229,-6.911 -11.906,-5.311 -11.27,-3.847C-10.635,-2.383 -9.747,-1.083 -8.629,0.017C-7.513,1.115 -6.206,1.993 -4.742,2.626C-3.273,3.261 -1.67,3.583 0.021,3.583C1.684,3.583 3.278,3.261 4.761,2.627C6.242,1.993 7.544,1.113 8.633,0.012C9.72,-1.088 10.592,-2.387 11.226,-3.847"/>
  </g>
  <g transform="matrix(1,0,0,1,332.6978,388.9855)">
      <path d="M0,-16.943L3.731,-16.943C4.294,-16.943 4.839,-16.834 5.352,-16.617C5.863,-16.4 6.31,-16.098 6.678,-15.719C7.051,-15.334 7.352,-14.878 7.571,-14.366C7.788,-13.856 7.898,-13.299 7.898,-12.712C7.898,-12.154 7.789,-11.621 7.573,-11.128C7.355,-10.63 7.056,-10.19 6.685,-9.819C6.315,-9.451 5.866,-9.154 5.352,-8.936C4.84,-8.72 4.295,-8.61 3.731,-8.61L0,-8.61L0,-16.943ZM13.332,1.123C12.896,0.542 12.438,-0.063 11.958,-0.689C11.481,-1.311 11.018,-1.921 10.569,-2.515C10.116,-3.114 9.715,-3.633 9.368,-4.068L7.731,-6.16C8.839,-6.75 9.702,-7.58 10.303,-8.633C10.998,-9.853 11.351,-11.235 11.351,-12.741C11.351,-13.735 11.153,-14.703 10.765,-15.62C10.379,-16.527 9.848,-17.347 9.185,-18.055C8.518,-18.768 7.709,-19.349 6.782,-19.781C5.845,-20.218 4.819,-20.439 3.731,-20.439L-3.452,-20.439L-3.452,3.496L0,3.496L0,-5.027L4.037,-5.027L10.647,3.496L15.086,3.496L14.466,2.651C14.146,2.216 13.768,1.706 13.332,1.123"/>
  </g>
  <g transform="matrix(1,0,0,1,368.0103,372.1294)">
      <path d="M0,16.769L-12.742,16.769L-12.742,-3.583L-16.281,-3.583L-16.281,20.352L0,20.352L0,16.769Z"/>
  </g>
  <g transform="matrix(1,0,0,1,380.5537,372.1294)">
      <path d="M0,16.769L-4.195,16.769L-4.195,-0.087L0,-0.087C1.161,-0.087 2.263,0.139 3.276,0.584C4.292,1.031 5.191,1.65 5.95,2.423C6.71,3.197 7.324,4.107 7.773,5.127C8.218,6.138 8.443,7.242 8.443,8.406C8.443,9.57 8.218,10.673 7.773,11.685C7.325,12.703 6.714,13.596 5.957,14.34C5.198,15.085 4.298,15.684 3.281,16.118C2.269,16.55 1.165,16.769 0,16.769M8.416,-0.033C7.343,-1.12 6.066,-1.993 4.619,-2.626C3.167,-3.261 1.604,-3.583 -0.028,-3.583L-7.734,-3.583L-7.734,20.352L-0.028,20.352C1.602,20.352 3.165,20.038 4.615,19.418C6.062,18.801 7.34,17.943 8.414,16.87C9.485,15.797 10.343,14.519 10.961,13.072C11.581,11.62 11.896,10.058 11.896,8.428C11.896,6.798 11.581,5.236 10.961,3.784C10.344,2.338 9.488,1.054 8.416,-0.033"/>
  </g>
  <g transform="matrix(1,0,0,1,427.7959,389.1596)">
      <path d="M0,-17.248C1.168,-17.248 2.29,-17.021 3.334,-16.573C4.385,-16.123 5.317,-15.501 6.107,-14.726C6.895,-13.952 7.521,-13.028 7.971,-11.981C8.418,-10.936 8.645,-9.799 8.645,-8.602C8.645,-7.406 8.418,-6.277 7.972,-5.248C7.523,-4.214 6.896,-3.298 6.107,-2.523C5.317,-1.747 4.385,-1.125 3.334,-0.675C2.291,-0.227 1.169,-0 0,-0C-1.199,-0 -2.344,-0.227 -3.403,-0.676C-4.466,-1.125 -5.396,-1.746 -6.17,-2.519C-6.945,-3.294 -7.566,-4.212 -8.016,-5.247C-8.463,-6.277 -8.689,-7.406 -8.689,-8.602C-8.689,-9.799 -8.463,-10.936 -8.015,-11.981C-7.565,-13.031 -6.944,-13.955 -6.17,-14.729C-5.397,-15.502 -4.466,-16.123 -3.403,-16.572C-2.344,-17.02 -1.198,-17.248 0,-17.248M8.635,-17.235C7.545,-18.353 6.241,-19.241 4.761,-19.874C3.278,-20.509 1.684,-20.831 0.021,-20.831C-1.671,-20.831 -3.273,-20.509 -4.742,-19.874C-6.205,-19.241 -7.515,-18.355 -8.631,-17.24C-9.748,-16.126 -10.636,-14.812 -11.271,-13.334C-11.906,-11.856 -12.229,-10.264 -12.229,-8.602C-12.229,-6.911 -11.906,-5.311 -11.271,-3.847C-10.636,-2.383 -9.747,-1.083 -8.629,0.017C-7.514,1.115 -6.206,1.993 -4.742,2.626C-3.273,3.261 -1.671,3.583 0.021,3.583C1.684,3.583 3.278,3.261 4.761,2.627C6.241,1.993 7.544,1.113 8.633,0.012C9.72,-1.088 10.592,-2.387 11.226,-3.847C11.861,-5.313 12.185,-6.913 12.185,-8.602C12.185,-10.262 11.862,-11.853 11.227,-13.334C10.593,-14.809 9.721,-16.121 8.635,-17.235"/>
  </g>
  <g transform="matrix(1,0,0,1,446.2695,368.5464)">
      <path d="M0,23.935L3.539,23.935L3.539,11.846L11.976,11.846L11.976,8.35L3.539,8.35L3.539,3.496L14.236,3.496L14.236,0L0,0L0,23.935Z"/>
  </g>
  <g transform="matrix(1,0,0,1,0,43.656)">
      <rect x="264.791" y="359.788" width="4.93" height="36.768"/>
  </g>
  <g transform="matrix(1,0,0,1,287.0308,440.2123)">
      <path d="M0,-36.768L-4.93,-36.768L-4.93,0L19.89,0L19.89,-4.998L0,-4.998L0,-36.768Z"/>
  </g>
  <g transform="matrix(1,0,0,1,322.1255,440.2123)">
      <path d="M0,-36.768L-4.93,-36.768L-4.93,0L19.89,0L19.89,-4.998L0,-4.998L0,-36.768Z"/>
  </g>
  <g transform="matrix(1,0,0,1,376.9326,417.8909)">
      <path d="M0,8.281C0,9.6 -0.257,10.841 -0.766,11.967C-1.276,13.098 -1.988,14.104 -2.881,14.958C-3.777,15.813 -4.848,16.497 -6.063,16.988C-7.279,17.48 -8.589,17.73 -9.958,17.73C-11.372,17.73 -12.705,17.48 -13.921,16.988C-15.142,16.495 -16.238,15.809 -17.18,14.949C-18.115,14.097 -18.859,13.091 -19.392,11.959C-19.919,10.839 -20.187,9.601 -20.187,8.281L-20.187,-14.447L-25.117,-14.447L-25.117,8.281C-25.117,10.252 -24.713,12.141 -23.916,13.897C-23.121,15.651 -22.018,17.192 -20.638,18.478C-19.267,19.759 -17.65,20.797 -15.833,21.566C-14.01,22.337 -12.045,22.728 -9.992,22.728C-7.983,22.728 -6.042,22.337 -4.219,21.566C-2.401,20.797 -0.805,19.756 0.525,18.472C1.856,17.188 2.934,15.649 3.729,13.897C4.525,12.137 4.93,10.248 4.93,8.281L4.93,-14.447L0,-14.447L0,8.281Z"/>
  </g>
  <g transform="matrix(1,0,0,1,397.1611,440.2122)">
      <path d="M0,-38.554L0,0L4.93,0L4.93,-24.814L16.176,-10.749L24.312,-20.843C24.943,-21.657 25.585,-22.482 26.239,-23.319C26.569,-23.741 26.896,-24.159 27.221,-24.575L27.221,0L32.15,0L32.15,-38.348L16.144,-18.549L0,-38.554Z"/>
  </g>
  <g transform="matrix(1,0,0,1,0,43.656)">
      <rect x="444.882" y="359.788" width="4.93" height="36.768"/>
  </g>
  <g transform="matrix(1,0,0,1,486.7656,414.1195)">
      <path d="M0,16.025L-23.827,-12.418L-23.827,26.092L-19.44,26.092L-19.44,0.001L4.454,28.443L4.454,-10.607L0,-10.607L0,16.025Z"/>
  </g>
  <g transform="matrix(1,0,0,1,519.793,419.309)">
      <path d="M0,3.482L-6.969,3.482C-6.568,2.363 -6.198,1.351 -5.866,0.464C-5.458,-0.622 -5.097,-1.595 -4.778,-2.457C-4.464,-3.315 -4.169,-4.106 -3.897,-4.83C-3.794,-5.106 -3.69,-5.378 -3.587,-5.648C-2.993,-4.098 -2.416,-2.635 -1.864,-1.286C-1.257,0.205 -0.631,1.805 0,3.482M4.412,1.163C1.852,-5.043 -0.673,-11.052 -3.092,-16.697L-3.589,-17.857L-19.235,20.122L-14.539,21.339L-11.543,14.3C-10.619,12.129 -9.725,10.007 -8.86,7.937L1.91,7.937L7.657,21.209L12.14,19.978L11.913,19.424C9.47,13.451 6.969,7.364 4.412,1.163"/>
  </g>
  <g transform="matrix(1,0,0,1,534.7588,435.3496)">
      <path d="M0,-27.043L13.577,-27.043L13.577,4.862L18.507,4.862L18.507,-27.043L31.947,-27.043L31.947,-31.905L0,-31.905L0,-27.043Z"/>
  </g>
  <g transform="matrix(1,0,0,1,0,43.656)">
      <rect x="577.253" y="359.788" width="4.931" height="36.768"/>
  </g>
  <g transform="matrix(1,0,0,1,614.7793,435.6225)">
      <path d="M0,-27.52C1.865,-27.52 3.655,-27.158 5.324,-26.443C6.997,-25.725 8.484,-24.734 9.743,-23.497C11,-22.262 12,-20.79 12.717,-19.119C13.431,-17.45 13.794,-15.636 13.794,-13.727C13.794,-11.818 13.432,-10.016 12.718,-8.372C12.002,-6.723 11.001,-5.26 9.743,-4.024C8.483,-2.787 6.997,-1.795 5.324,-1.079C3.656,-0.364 1.865,-0.001 0,-0.001C-1.91,-0.001 -3.736,-0.365 -5.428,-1.08C-7.121,-1.796 -8.605,-2.786 -9.841,-4.021C-11.078,-5.258 -12.068,-6.722 -12.784,-8.372C-13.498,-10.016 -13.86,-11.818 -13.86,-13.727C-13.86,-15.636 -13.498,-17.45 -12.783,-19.119C-12.065,-20.791 -11.075,-22.265 -9.841,-23.5C-8.606,-24.735 -7.121,-25.724 -5.428,-26.442C-3.736,-27.157 -1.91,-27.52 0,-27.52M13.268,-26.995C11.593,-28.711 9.591,-30.076 7.315,-31.049C5.039,-32.023 2.589,-32.517 0.034,-32.517C-2.565,-32.517 -5.028,-32.023 -7.283,-31.048C-9.532,-30.077 -11.544,-28.714 -13.262,-26.999C-14.979,-25.287 -16.344,-23.267 -17.319,-20.996C-18.295,-18.723 -18.79,-16.278 -18.79,-13.727C-18.79,-11.129 -18.295,-8.671 -17.318,-6.422C-16.343,-4.173 -14.978,-2.175 -13.26,-0.485C-11.544,1.205 -9.533,2.555 -7.283,3.527C-5.028,4.501 -2.565,4.997 0.034,4.997C2.589,4.997 5.039,4.502 7.315,3.528C9.592,2.554 11.593,1.203 13.265,-0.49C14.936,-2.18 16.276,-4.176 17.251,-6.422C18.228,-8.673 18.724,-11.131 18.724,-13.727C18.724,-16.276 18.229,-18.721 17.252,-20.996C16.277,-23.264 14.937,-25.283 13.268,-26.995"/>
  </g>
  <g transform="matrix(1,0,0,1,669.71,440.7507)">
      <path d="M0,-37.238L0,-10.606L-23.827,-39.05L-23.827,-0.539L-19.439,-0.539L-19.439,-26.631L4.455,1.812L4.455,-37.238L0,-37.238Z"/>
  </g>
</svg>
