<svg xmlns="http://www.w3.org/2000/svg" viewBox="217.28 352.13 1484.83 374.9" fill="#fff" fill-rule="nonzero">
<g transform="matrix(1,0,0,1,1475.3033,571.3593)">
      <path d="M0,-27.695C1.854,-32.018 4.413,-35.829 7.604,-39.021C10.795,-42.212 14.633,-44.77 19.011,-46.623C23.382,-48.472 28.102,-49.409 33.039,-49.409C37.858,-49.409 42.487,-48.473 46.799,-46.626C51.124,-44.772 54.967,-42.21 58.221,-39.012C61.468,-35.822 64.053,-32.015 65.906,-27.695C67.753,-23.383 68.69,-18.695 68.69,-13.76C68.69,-8.826 67.754,-4.17 65.908,0.081C64.058,4.341 61.472,8.121 58.221,11.316C54.964,14.515 51.123,17.076 46.8,18.93C42.489,20.777 37.858,21.714 33.039,21.714C28.102,21.714 23.382,20.776 19.011,18.927C14.634,17.075 10.796,14.517 7.604,11.325C4.407,8.128 1.848,4.344 -0.003,0.08C-1.849,-4.17 -2.785,-8.826 -2.785,-13.76C-2.785,-18.695 -1.848,-23.383 0,-27.695M-1.232,20.464C3.203,24.832 8.399,28.321 14.214,30.834C20.043,33.353 26.407,34.631 33.128,34.631C39.731,34.631 46.063,33.354 51.947,30.836C57.829,28.32 63.002,24.826 67.323,20.452C71.642,16.083 75.107,10.925 77.625,5.119C80.151,-0.699 81.432,-7.052 81.432,-13.76C81.432,-20.348 80.152,-26.67 77.627,-32.548C75.108,-38.411 71.644,-43.627 67.33,-48.053C63.002,-52.491 57.826,-56.016 51.947,-58.532C46.063,-61.049 39.731,-62.326 33.128,-62.326C26.407,-62.326 20.043,-61.049 14.214,-58.53C8.402,-56.017 3.203,-52.497 -1.239,-48.066C-5.675,-43.639 -9.203,-38.418 -11.725,-32.548C-14.247,-26.674 -15.526,-20.353 -15.526,-13.76C-15.526,-7.047 -14.247,-0.695 -11.722,5.119C-9.201,10.932 -5.672,16.095 -1.232,20.464"/>
  </g>
  <g transform="matrix(1,0,0,1,751.9502,604.9377)">
      <path d="M0,-95.028L-12.741,-95.028L-12.741,0L51.408,0L51.408,-12.917L0,-12.917L0,-95.028Z"/>
  </g>
  <g transform="matrix(1,0,0,1,738.1672,434.93)">
      <path d="M0,31.539C-2.041,33.545 -4.452,35.152 -7.166,36.315C-9.864,37.472 -12.765,38.059 -15.786,38.059C-18.883,38.059 -21.843,37.471 -24.58,36.312C-27.327,35.15 -29.732,33.547 -31.732,31.548C-33.736,29.544 -35.341,27.172 -36.503,24.497C-37.656,21.836 -38.243,18.918 -38.243,15.826C-38.243,12.733 -37.656,9.794 -36.5,7.093C-35.337,4.381 -33.732,1.991 -31.732,-0.009C-29.734,-2.008 -27.327,-3.611 -24.58,-4.773C-21.842,-5.932 -18.882,-6.519 -15.786,-6.519C-12.766,-6.519 -9.865,-5.932 -7.166,-4.776C-4.452,-3.612 -2.041,-2.006 0,-0C2.035,2 3.655,4.387 4.816,7.093C5.972,9.794 6.559,12.733 6.559,15.826C6.559,18.918 5.972,21.836 4.819,24.497C3.66,27.166 2.039,29.536 0,31.539M13.228,28.117C14.873,24.327 15.707,20.192 15.707,15.826C15.707,11.537 14.875,7.422 13.23,3.596C11.593,-0.215 9.341,-3.607 6.534,-6.487C3.716,-9.376 0.346,-11.672 -3.48,-13.309C-7.313,-14.948 -11.434,-15.78 -15.729,-15.78C-20.103,-15.78 -24.245,-14.948 -28.042,-13.307C-31.823,-11.672 -35.206,-9.381 -38.093,-6.5C-40.981,-3.62 -43.275,-0.223 -44.916,3.595C-46.558,7.417 -47.39,11.532 -47.39,15.826C-47.39,20.197 -46.557,24.333 -44.913,28.117C-43.273,31.899 -40.976,35.259 -38.087,38.102C-35.204,40.942 -31.825,43.211 -28.042,44.846C-24.245,46.487 -20.103,47.319 -15.729,47.319C-11.434,47.319 -7.313,46.488 -3.48,44.848C0.346,43.211 3.715,40.936 6.527,38.089C9.337,35.246 11.592,31.891 13.228,28.117"/>
  </g>
  <g transform="matrix(1,0,0,1,661.2446,604.9377)">
      <path d="M0,-95.028L-12.741,-95.028L-12.741,0L51.408,0L51.408,-12.917L0,-12.917L0,-95.028Z"/>
  </g>
  <g transform="matrix(1,0,0,1,1417.4742,511.4154)">
      <path d="M0,80.85C1.742,80.85 4.076,81.394 6.62,82.356L6.62,-1.506L-6.121,-1.506L-6.121,82.039C-4.224,81.264 -2.157,80.85 0,80.85"/>
  </g>
  <g transform="matrix(1,0,0,1,683.627,482.383)">
      <path d="M0,-60.775L-9.088,-63.007L-9.573,-62.012C-12.256,-56.496 -14.868,-51.005 -17.338,-45.695C-18.388,-43.448 -19.491,-41.088 -20.653,-38.617C-21.816,-36.141 -22.959,-33.684 -24.085,-31.245C-25.211,-28.803 -26.281,-26.437 -27.297,-24.145C-27.822,-22.955 -28.304,-21.845 -28.745,-20.8C-29.861,-23.219 -30.862,-25.304 -31.733,-27.022C-32.94,-29.397 -34.005,-31.432 -34.899,-33.071C-35.793,-34.707 -36.556,-36.141 -37.188,-37.369C-37.73,-38.423 -38.265,-39.588 -38.78,-40.838L-30.977,-59.635L-39.972,-62.043L-40.415,-60.894C-40.786,-59.936 -41.228,-58.868 -41.747,-57.68C-42.173,-56.682 -42.669,-55.532 -43.232,-54.231L-43.317,-54.033C-43.529,-53.545 -43.744,-53.041 -43.964,-52.521L-47.883,-62.042L-56.75,-59.624L-48.832,-40.951C-50.501,-36.999 -51.927,-33.779 -53.074,-31.375C-54.24,-28.934 -55.268,-26.895 -56.13,-25.318L-58.32,-21.331C-58.512,-20.982 -58.707,-20.618 -58.901,-20.24L-78.72,-63.017L-87.715,-60.768L-58.865,2.242L-57.655,-0.636C-56.484,-3.423 -55.264,-6.144 -54.029,-8.725C-52.795,-11.303 -51.516,-13.881 -50.224,-16.389C-48.914,-18.939 -47.618,-21.493 -46.341,-24.045C-45.48,-25.767 -44.627,-27.578 -43.791,-29.456L-28.651,1.945L0,-60.775Z"/>
  </g>
  <g transform="matrix(1,0,0,1,1336.6123,509.9099)">
      <path d="M0,84.031C4.16,81.338 8.471,79.098 12.742,77.538L12.742,12.566L47.481,12.566L47.481,0L-35.089,0L-35.089,12.566L0,12.566L0,84.031Z"/>
  </g>
  <g transform="matrix(1,0,0,1,0,34.848)">
      <rect x="603.764" y="475.062" width="12.742" height="95.028"/>
  </g>
  <g transform="matrix(1,0,0,1,1596.5104,521.5358)">
      <path d="M0,73.347C1.253,73.347 2.434,73.412 3.561,73.52L3.561,15.965L65.318,89.478L65.318,-11.451L53.806,-11.451L53.806,57.382L-7.778,-16.131L-7.778,74.157C-5.415,73.648 -2.838,73.347 0,73.347"/>
  </g>
  <g transform="matrix(1,0,0,1,1045.6694,441.9736)">
      <path d="M0,17.453C-1.159,20.123 -2.78,22.492 -4.819,24.495C-6.86,26.502 -9.271,28.108 -11.986,29.271C-14.683,30.428 -17.583,31.015 -20.605,31.015C-23.702,31.015 -26.662,30.427 -29.399,29.269C-32.146,28.107 -34.551,26.504 -36.551,24.504C-38.555,22.501 -40.16,20.129 -41.322,17.454C-42.475,14.792 -43.062,11.875 -43.062,8.782C-43.062,5.689 -42.475,2.75 -41.319,0.05C-40.156,-2.663 -38.551,-5.052 -36.551,-7.052C-34.552,-9.051 -32.146,-10.654 -29.399,-11.817C-26.661,-12.975 -23.701,-13.563 -20.605,-13.563C-17.585,-13.563 -14.684,-12.976 -11.986,-11.819C-9.271,-10.656 -6.86,-9.049 -4.819,-7.044C-2.785,-5.044 -1.163,-2.657 -0.002,0.049C1.154,2.75 1.74,5.689 1.74,8.782C1.74,11.875 1.154,14.792 0,17.453M1.714,-13.53C-1.103,-16.419 -4.472,-18.715 -8.299,-20.352C-12.132,-21.992 -16.253,-22.823 -20.549,-22.823C-24.921,-22.823 -29.065,-21.991 -32.861,-20.35C-36.642,-18.715 -40.025,-16.425 -42.912,-13.544C-45.799,-10.664 -48.093,-7.267 -49.734,-3.449C-51.377,0.374 -52.21,4.488 -52.21,8.782C-52.21,13.154 -51.376,17.289 -49.732,21.073C-48.092,24.855 -45.795,28.215 -42.906,31.058C-40.023,33.898 -36.643,36.168 -32.861,37.803C-29.065,39.444 -24.921,40.276 -20.549,40.276C-16.253,40.276 -12.132,39.444 -8.299,37.805C-4.472,36.167 -1.104,33.893 1.708,31.046C4.517,28.203 6.773,24.847 8.409,21.073C10.054,17.284 10.888,13.148 10.888,8.782C10.888,4.494 10.055,0.379 8.412,-3.448C6.775,-7.258 4.522,-10.65 1.714,-13.53"/>
  </g>
  <g transform="matrix(1,0,0,1,1072.8115,419.7128)">
      <path d="M0,61.862L9.148,61.862L9.148,30.616L30.953,30.616L30.953,21.58L9.148,21.58L9.148,9.035L36.798,9.035L36.798,0L0,0L0,61.862Z"/>
  </g>
  <g transform="matrix(1,0,0,1,0,34.848)">
      <rect x="1069.225" y="475.062" width="12.742" height="95.028"/>
  </g>
  <g transform="matrix(1,0,0,1,796.5534,454.1267)">
      <path d="M0,-6.966C-0.956,-6.016 -2.115,-5.247 -3.444,-4.684C-4.767,-4.126 -6.176,-3.843 -7.633,-3.843L-17.277,-3.843L-17.277,-25.379L-7.633,-25.379C-6.179,-25.379 -4.771,-25.095 -3.446,-24.536C-2.123,-23.975 -0.969,-23.194 -0.018,-22.215C0.948,-21.219 1.724,-20.041 2.29,-18.717C2.851,-17.399 3.136,-15.96 3.136,-14.442C3.136,-13.002 2.853,-11.624 2.296,-10.349C1.732,-9.062 0.96,-7.924 0,-6.966M17.18,21.316C16.053,19.813 14.87,18.251 13.63,16.633C12.396,15.023 11.2,13.449 10.039,11.913C8.869,10.363 7.832,9.022 6.935,7.899L2.705,2.492C5.567,0.966 7.798,-1.178 9.351,-3.901C11.147,-7.054 12.059,-10.626 12.059,-14.518C12.059,-17.086 11.549,-19.589 10.545,-21.958C9.549,-24.304 8.176,-26.422 6.463,-28.253C4.737,-30.095 2.648,-31.596 0.251,-32.715C-2.17,-33.843 -4.822,-34.414 -7.633,-34.414L-26.2,-34.414L-26.2,27.448L-17.277,27.448L-17.277,5.418L-6.843,5.418L10.241,27.448L21.714,27.448L20.11,25.265C19.283,24.139 18.307,22.822 17.18,21.316"/>
  </g>
  <g transform="matrix(1,0,0,1,1177.4788,537.5007)">
      <path d="M0,41.417L-61.583,-32.096L-61.583,67.437L-50.245,67.437L-50.245,0L11.513,73.513L11.513,-27.416L0,-27.416L0,41.417Z"/>
  </g>
  <g transform="matrix(1,0,0,1,1244.8302,550.9147)">
      <path d="M0,8.998C1.035,6.107 1.99,3.49 2.85,1.2C3.903,-1.609 4.837,-4.125 5.66,-6.352C6.475,-8.57 7.235,-10.614 7.938,-12.485C8.206,-13.198 8.473,-13.903 8.74,-14.6C10.275,-10.593 11.768,-6.813 13.192,-3.325C14.762,0.528 16.38,4.665 18.011,8.998L0,8.998ZM49.387,51.634L48.802,50.203C42.485,34.763 36.021,19.031 29.414,3.004C22.797,-13.036 16.272,-28.566 10.019,-43.157L8.734,-46.155L-31.705,52.006L-19.566,55.153L-11.824,36.96C-9.434,31.347 -7.123,25.863 -4.89,20.512L22.948,20.512L37.801,54.815L49.387,51.634Z"/>
  </g>
  <g transform="matrix(1,0,0,1,893.605,547.2473)">
      <path d="M0,21.405C0,24.814 -0.665,28.019 -1.978,30.93C-3.298,33.854 -5.138,36.455 -7.446,38.66C-9.762,40.872 -12.529,42.637 -15.672,43.908C-18.813,45.181 -22.201,45.826 -25.737,45.826C-29.392,45.826 -32.838,45.181 -35.979,43.908C-39.134,42.633 -41.968,40.86 -44.403,38.638C-46.82,36.436 -48.744,33.836 -50.12,30.91C-51.484,28.013 -52.175,24.816 -52.175,21.405L-52.175,-37.338L-64.917,-37.338L-64.917,21.405C-64.917,26.496 -63.873,31.38 -61.813,35.919C-59.758,40.453 -56.907,44.436 -53.341,47.759C-49.796,51.068 -45.618,53.752 -40.921,55.739C-36.211,57.732 -31.132,58.743 -25.825,58.743C-20.634,58.743 -15.614,57.732 -10.904,55.739C-6.206,53.752 -2.08,51.062 1.357,47.744C4.798,44.426 7.582,40.447 9.636,35.919C11.696,31.371 12.742,26.488 12.742,21.405L12.742,-37.338L0,-37.338L0,21.405Z"/>
  </g>
  <g transform="matrix(1,0,0,1,870.5437,428.9725)">
      <path d="M0,43.342L-32.933,43.342L-32.933,-9.26L-42.08,-9.26L-42.08,52.602L0,52.602L0,43.342Z"/>
  </g>
  <g transform="matrix(1,0,0,1,923.0533,442.115)">
      <path d="M0,17.058C-1.157,19.69 -2.736,21.998 -4.693,23.921C-6.654,25.848 -8.98,27.394 -11.609,28.516C-14.225,29.633 -17.079,30.199 -20.089,30.199L-30.932,30.199L-30.932,-13.367L-20.089,-13.367C-17.088,-13.367 -14.239,-12.783 -11.622,-11.632C-8.997,-10.476 -6.671,-8.877 -4.71,-6.88C-2.745,-4.879 -1.16,-2.527 0,0.11C1.15,2.723 1.733,5.575 1.733,8.585C1.733,11.593 1.15,14.445 0,17.058M1.663,-13.227C-1.109,-16.038 -4.411,-18.292 -8.15,-19.927C-11.904,-21.57 -15.945,-22.402 -20.162,-22.402L-40.079,-22.402L-40.079,39.46L-20.162,39.46C-15.949,39.46 -11.91,38.647 -8.161,37.046C-4.422,35.45 -1.119,33.234 1.656,30.46C4.427,27.688 6.642,24.385 8.242,20.643C9.842,16.891 10.655,12.853 10.655,8.641C10.655,4.429 9.842,0.39 8.242,-3.363C6.645,-7.099 4.432,-10.418 1.663,-13.227"/>
  </g>
  <g transform="matrix(1,0,0,1,945.8869,604.9372)">
      <path d="M0,-99.643L0,0L12.742,0L12.742,-64.132L41.808,-27.779L62.839,-53.868C64.468,-55.972 66.128,-58.103 67.819,-60.266C68.672,-61.357 69.516,-62.441 70.354,-63.516L70.354,0L83.097,0L83.097,-99.111L41.724,-47.94L0,-99.643Z"/>
  </g>
  <g transform="matrix(1,0,0,1,1365.9224,699.6165)">
      <path d="M0,-91.8C-3.043,-99.073 -6.255,-102.172 -10.746,-102.172C-23.738,-102.172 -45.041,-80.988 -48.605,-67.683C-49.684,-63.335 -50.213,-59.46 -50.213,-55.866C-50.213,-40.998 -41.957,-30.547 -37.036,-25.64C-33.107,-21.849 -30.846,-16.649 -30.846,-11.39C-30.846,-1.217 -38.721,3.417 -46.037,3.417L-46.041,3.417C-52.913,3.419 -63.871,-4.689 -65.357,-15.888C-66.042,-21.133 -71.783,-26.067 -75.732,-26.067C-77.6,-26.067 -78.759,-24.798 -78.759,-22.756C-78.759,-17.852 -73.545,-8.267 -58.849,2.606C-51.822,7.684 -44.313,10.372 -37.143,10.372C-28.054,10.372 -14.605,4.607 -14.605,-7.766C-14.605,-14.767 -19.519,-22.563 -24.273,-30.105C-29.186,-37.907 -33.828,-45.277 -33.828,-52.571C-33.828,-63.337 -16.557,-85.5 -5.87,-85.5C-2.331,-85.5 0.14,-82.933 0.14,-79.256C0.14,-76.388 -1.441,-72.928 -4.199,-69.76C-5.793,-67.928 -8.468,-64.028 -8.468,-58.501C-8.468,-54.456 -5.581,-45.635 -2.716,-45.635C-0.762,-45.635 2.803,-49.148 6.016,-56.862C6.25,-57.478 8.478,-64.389 8.627,-64.954C9.098,-67.04 9.35,-68.918 9.35,-70.363C9.35,-76.768 7.149,-80.049 4.364,-84.201C2.842,-86.469 1.277,-88.802 0,-91.8"/>
  </g>
  <g transform="matrix(1,0,0,1,1655.7633,674.4598)">
      <path d="M0,-15.439C-1.635,-10.265 -2.38,-2.418 -2.38,2.681C-2.38,10.938 -3.157,16.437 -6.953,16.437C-11.777,16.437 -17.936,5.087 -17.994,4.973C-18.218,4.522 -18.158,3.982 -17.837,3.593C-12.355,-3.072 -4.944,-12.796 -2.253,-16.564C-1.887,-17.077 -1.205,-17.244 -0.645,-16.964C-0.085,-16.684 0.189,-16.038 0,-15.439M8.825,-44.532C8.374,-44.532 7.179,-44.532 5.509,-41.341C-10.037,-11.78 -33.214,15.294 -40.764,20.918C-41.969,21.823 -42.691,22.888 -42.691,23.768C-42.691,24.445 -42.3,24.789 -41.526,24.789C-41.138,24.789 -40.513,24.687 -40.03,24.398C-35.138,22.131 -28.837,16.589 -21.69,8.304C-21.444,8.02 -21.09,7.862 -20.724,7.862C-20.65,7.862 -20.575,7.868 -20.5,7.882C-20.057,7.96 -19.689,8.266 -19.532,8.688C-14.727,21.465 -7.879,29.093 -1.215,29.093C3.881,29.093 8.138,24.246 8.27,18.289C8.546,-7.094 14.934,-34.026 17.321,-35.547C18.322,-36.279 18.885,-37.063 18.885,-37.773C18.885,-40.22 11.942,-44.532 8.825,-44.532"/>
  </g>
  <g transform="matrix(1,0,0,1,1590.1373,611.36)">
      <path d="M0,84.987C-4.364,84.987 -6.868,82.797 -6.868,78.979C-6.868,67.347 17.981,38.828 28.118,38.828C30.622,38.828 32.118,40.43 32.118,43.115C32.118,53.289 7.804,84.987 0,84.987M-105.004,85.274C-106.764,85.274 -108.143,83.958 -108.143,82.277C-108.143,70.852 -86.46,45.592 -79.644,42.932C-78.75,42.575 -78.028,42.414 -77.316,42.414C-75.999,42.414 -74.249,43.247 -73.45,44.839C-73.251,45.238 -73.273,45.713 -73.512,46.09C-77.727,52.775 -82.059,60.007 -83.953,63.251C-91.805,77.709 -100.485,85.274 -105.004,85.274M-116.925,66.336C-117.006,66.461 -117.081,66.577 -117.162,66.702C-125.094,75.254 -135.687,85.419 -141.227,85.419C-141.257,85.419 -141.287,85.418 -141.319,85.418C-143.373,85.418 -144.72,84.016 -144.72,81.848C-144.72,72.415 -120.953,42.647 -116.216,38.042C-115.514,37.339 -115.168,36.649 -115.168,35.943C-115.168,32.344 -121.404,27.606 -125.083,27.606C-125.683,27.606 -126.206,27.841 -126.38,28.192C-129.131,32.887 -156.798,69.742 -169.385,81.903C-170.699,83.218 -172.283,83.982 -173.714,83.982C-175.646,83.982 -176.709,82.918 -176.709,80.986C-176.709,80.372 -176.622,79.137 -176.034,77.761C-173.44,69.826 -161.971,53.083 -145.9,37.886C-144.722,36.841 -144.575,35.993 -144.575,35.369C-144.575,32.874 -151.929,28.323 -155.063,28.323C-156.393,28.323 -157.565,29.005 -158.643,30.408L-160.674,32.888C-168.981,43.014 -184.467,61.889 -186.71,70.217C-186.816,70.403 -186.9,70.55 -187.006,70.736C-192.147,75.819 -204.9,87.713 -211.583,87.713C-214.847,87.713 -216.873,85.576 -216.873,82.134C-216.873,71.446 -199.367,46.509 -188.934,32.596C-188.72,32.31 -183.482,25.648 -183.181,25.261C-180.631,21.984 -177.353,17.901 -174.265,14.147C-173.642,13.39 -172.716,12.958 -171.735,12.958L-57.035,12.958C-54.6,12.958 -53.166,15.706 -54.58,17.688C-58.784,23.585 -63.047,29.857 -67.354,36.493C-67.54,36.782 -67.834,36.982 -68.17,37.05C-68.509,37.116 -68.855,37.047 -69.139,36.853C-70.413,35.985 -71.17,34.627 -71.972,33.191C-73.493,30.466 -74.929,27.893 -79.898,27.893C-89.127,27.893 -109.541,49.089 -116.925,66.336M31.74,33.873C30.53,33.117 29.278,32.335 28.125,31.295L27.488,30.697C25.775,29.059 22.91,26.315 19.223,26.315C18.16,26.315 17.232,26.508 16.298,26.923C7.402,30.481 -15.036,51.884 -17.188,69.743C-17.218,69.991 -17.312,70.204 -17.49,70.38C-22.481,75.324 -34.941,86.995 -41.312,86.995C-42.303,86.995 -43.303,86.157 -43.303,84.286C-42.833,77.97 -29.963,55.095 -13.142,36.242C-12.056,35.021 -11.817,34.225 -11.73,33.609C-11.73,33.593 -11.738,33.108 -12.634,32.132C-15.213,29.317 -21.299,26.458 -23.236,26.458C-24.025,26.458 -25.143,26.743 -26.808,28.961C-38.965,44.895 -46.79,57.252 -50.738,66.743C-50.821,66.874 -50.903,67.003 -50.986,67.135C-68.011,86.277 -72.423,86.277 -73.873,86.277C-75.987,86.277 -77.299,84.855 -77.299,82.565C-77.299,69.659 -45.25,23.442 -28.016,5.928C-26.746,4.657 -26.231,3.796 -26.231,2.948C-26.231,0.434 -33.724,-5.532 -36.146,-5.532C-36.55,-5.532 -36.871,-5.365 -37.157,-5.007C-39.611,-2.075 -42.101,1.032 -44.618,4.276C-45.185,5.008 -46.064,5.447 -46.99,5.447L-163.794,5.447C-164.982,5.447 -165.622,4.061 -164.859,3.149C-163.995,2.117 -163.213,1.072 -163.213,0.652C-163.213,-1.669 -172.232,-7.685 -174.848,-7.685C-175.229,-7.685 -175.931,-7.581 -176.322,-6.893C-177.225,-5.281 -181.913,1.463 -183.949,4.243C-184.504,5.001 -185.382,5.447 -186.321,5.447L-203.94,5.447C-205.125,5.447 -206,6.551 -205.729,7.704L-204.828,11.54C-204.634,12.371 -203.893,12.958 -203.04,12.958L-192.097,12.958C-191.291,12.958 -190.826,13.874 -191.303,14.524C-194.609,19.02 -198.133,23.838 -200.196,26.9C-200.435,27.253 -206.101,35.825 -206.36,36.217C-213.278,46.651 -222.253,61.243 -225.725,71.497C-226.368,73.752 -226.661,75.504 -226.661,77.114C-226.661,80.595 -225.19,83.63 -222.031,86.667C-218.182,90.387 -214.578,92.192 -211.008,92.192C-203.943,92.192 -194.107,83.23 -188.872,77.887C-188.543,77.554 -188.056,77.429 -187.612,77.554C-187.164,77.681 -186.821,78.044 -186.719,78.498C-185.352,84.547 -181.055,90.616 -175.461,90.616C-175.412,90.616 -175.362,90.616 -175.315,90.614C-170.515,90.614 -163.082,82.041 -159.086,77.435C-158.417,76.662 -157.817,75.971 -157.304,75.4C-157.057,75.126 -156.709,74.979 -156.355,74.979C-156.201,74.979 -156.047,75.006 -155.9,75.063C-155.407,75.252 -155.081,75.725 -155.081,76.253L-155.081,77.257C-155.081,81.327 -154.404,86.844 -151.172,90.029C-149.385,91.793 -146.958,92.672 -143.893,92.623C-138.628,92.553 -130.567,86.94 -121.777,77.219C-121.439,76.845 -120.906,76.704 -120.44,76.862C-119.962,77.016 -119.619,77.435 -119.564,77.934C-119.268,80.625 -117.264,82.693 -115.499,84.516C-114.725,85.316 -113.993,86.071 -113.438,86.84C-111.591,89.546 -109.435,91.331 -104.859,91.331C-101.757,91.331 -95.155,86.951 -90.331,82.881C-90.025,82.625 -89.619,82.524 -89.228,82.612C-88.84,82.7 -88.514,82.966 -88.349,83.328C-86.248,87.955 -81.71,92.623 -76.313,92.623C-70.665,92.623 -63.555,88.066 -55.753,79.446C-55.422,79.08 -54.911,78.938 -54.443,79.078C-53.973,79.219 -53.625,79.616 -53.547,80.1C-52.522,86.542 -46.602,92.192 -40.881,92.192C-35.686,92.192 -25.743,84.474 -18.168,77.25C-17.871,76.969 -17.461,76.84 -17.06,76.919C-16.659,76.991 -16.318,77.252 -16.141,77.619C-14.752,80.51 -12.457,82.718 -10.938,84.178C-10.495,84.604 -10.115,84.972 -9.826,85.283C-7.685,87.658 -3.341,91.619 1.865,91.619C13.5,91.619 37.533,64.119 38.175,46.369L38.175,45.267C38.175,37.895 35.193,36.03 31.74,33.873"/>
  </g>
  <g transform="matrix(1,0,0,1,1684.6594,619.2418)">
      <path d="M0,2.641L-1.32,-1.196C-1.575,-1.937 -2.273,-2.435 -3.057,-2.435L-71.85,-2.435C-72.284,-2.435 -72.615,-2.063 -72.582,-1.631C-72.496,-0.478 -72.517,1.209 -72.57,1.507C-72.712,2.319 -72.95,3.127 -73.278,3.921C-73.504,4.47 -73.139,5.076 -72.545,5.076L-1.737,5.076C-0.476,5.076 0.411,3.834 0,2.641"/>
  </g>
  <g transform="matrix(1,0,0,1,1585.8356,612.7135)">
      <path d="M0,15.67C6.878,15.67 11.245,11.392 11.496,7.256C11.603,5.577 11.078,4.068 9.973,2.889C8.2,1 5.049,0 0.861,0C-6.209,0 -10.777,2.678 -11.063,6.988C-11.225,8.807 -10.54,10.634 -9.144,12.161C-7.07,14.424 -3.824,15.67 0,15.67"/>
  </g>
  <g transform="matrix(1,0,0,1,330.1963,425.9637)">
      <path d="M0,176.4C-4.783,176.4 -8.66,172.523 -8.66,167.74L-8.66,8.661C-8.66,3.878 -4.783,0 0,0C4.783,0 8.66,3.878 8.66,8.661L8.66,167.74C8.66,172.523 4.783,176.4 0,176.4"/>
  </g>
  <g transform="matrix(1,0,0,1,286.9656,461.1511)">
      <path d="M0,109.814C-4.783,109.814 -8.66,105.937 -8.66,101.154L-8.66,8.661C-8.66,3.878 -4.783,0 0,0C4.783,0 8.66,3.878 8.66,8.661L8.66,101.154C8.66,105.937 4.783,109.814 0,109.814"/>
  </g>
  <g transform="matrix(1,0,0,1,242.9796,498.6259)">
      <path d="M0,32.728C-4.783,32.728 -8.66,28.851 -8.66,24.068L-8.66,8.661C-8.66,3.878 -4.783,0 0,0C4.783,0 8.66,3.878 8.66,8.661L8.66,24.068C8.66,28.851 4.783,32.728 0,32.728"/>
  </g>
  <g transform="matrix(1,0,0,1,416.7964,602.364)">
      <path d="M0,-176.4C4.783,-176.4 8.66,-172.523 8.66,-167.74L8.66,-8.661C8.66,-3.878 4.783,0 0,0C-4.783,0 -8.66,-3.878 -8.66,-8.661L-8.66,-167.74C-8.66,-172.523 -4.783,-176.4 0,-176.4"/>
  </g>
  <g transform="matrix(1,0,0,1,374.2539,633.9023)">
      <path d="M0,-113.345C4.783,-113.345 8.66,-109.468 8.66,-104.685L8.66,-8.66C8.66,-3.877 4.783,0 0,0C-4.783,0 -8.66,-3.877 -8.66,-8.66L-8.66,-104.685C-8.66,-109.468 -4.783,-113.345 0,-113.345"/>
  </g>
  <g transform="matrix(1,0,0,1,460.0271,567.1766)">
      <path d="M0,-109.814C4.783,-109.814 8.66,-105.937 8.66,-101.154L8.66,-8.661C8.66,-3.878 4.783,0 0,0C-4.783,0 -8.66,-3.878 -8.66,-8.661L-8.66,-101.154C-8.66,-105.937 -4.783,-109.814 0,-109.814"/>
  </g>
  <g transform="matrix(1,0,0,1,504.317,529.7018)">
      <path d="M0,-32.728C4.783,-32.728 8.66,-28.851 8.66,-24.068L8.66,-8.661C8.66,-3.878 4.783,0 0,0C-4.783,0 -8.66,-3.878 -8.66,-8.661L-8.66,-24.068C-8.66,-28.851 -4.783,-32.728 0,-32.728"/>
  </g>
  <g transform="matrix(0,-1,-1,0,330.3481,394.4692)">
      <path d="M-8.812,-8.812C-13.679,-8.812 -17.625,-4.867 -17.625,-0C-17.625,4.867 -13.679,8.812 -8.812,8.812C-3.946,8.812 -0,4.867 -0,-0C-0,-4.867 -3.946,-8.812 -8.812,-8.812"/>
  </g>
  <g transform="matrix(0,-1,-1,0,416.9483,394.4692)">
      <path d="M-8.812,-8.812C-13.679,-8.812 -17.625,-4.867 -17.625,-0C-17.625,4.867 -13.679,8.812 -8.812,8.812C-3.946,8.812 -0,4.867 -0,-0C-0,-4.867 -3.946,-8.812 -8.812,-8.812"/>
  </g>
  <g transform="matrix(0,-1,-1,0,330.3484,369.1654)">
      <path d="M-6.168,-6.168C-9.575,-6.168 -12.337,-3.406 -12.337,0C-12.337,3.408 -9.575,6.168 -6.168,6.168C-2.761,6.168 0,3.408 0,0C0,-3.406 -2.761,-6.168 -6.168,-6.168"/>
  </g>
  <g transform="matrix(0,-1,-1,0,287.0458,429.4623)">
      <path d="M-8.812,-8.812C-13.679,-8.812 -17.625,-4.867 -17.625,-0C-17.625,4.867 -13.679,8.812 -8.812,8.812C-3.946,8.812 -0,4.867 -0,-0C-0,-4.867 -3.946,-8.812 -8.812,-8.812"/>
  </g>
  <g transform="matrix(0,-1,-1,0,287.0461,404.1585)">
      <path d="M-6.168,-6.168C-9.575,-6.168 -12.337,-3.406 -12.337,0C-12.337,3.408 -9.575,6.168 -6.168,6.168C-2.761,6.168 0,3.408 0,0C0,-3.406 -2.761,-6.168 -6.168,-6.168"/>
  </g>
  <g transform="matrix(0,-1,-1,0,243.1358,467.4947)">
      <path d="M-8.812,-8.812C-13.679,-8.812 -17.625,-4.867 -17.625,-0C-17.625,4.867 -13.679,8.812 -8.812,8.812C-3.946,8.812 -0,4.867 -0,-0C-0,-4.867 -3.946,-8.812 -8.812,-8.812"/>
  </g>
  <g transform="matrix(0,-1,-1,0,243.1361,442.1908)">
      <path d="M-6.168,-6.168C-9.575,-6.168 -12.337,-3.406 -12.337,0C-12.337,3.408 -9.575,6.168 -6.168,6.168C-2.761,6.168 0,3.408 0,0C0,-3.406 -2.761,-6.168 -6.168,-6.168"/>
  </g>
  <g transform="matrix(0,-1,-1,0,504.4688,467.4947)">
      <path d="M-8.812,-8.812C-13.679,-8.812 -17.625,-4.867 -17.625,-0C-17.625,4.867 -13.679,8.812 -8.812,8.812C-3.946,8.812 -0,4.867 -0,-0C-0,-4.867 -3.946,-8.812 -8.812,-8.812"/>
  </g>
  <g transform="matrix(0,-1,-1,0,504.4691,442.1908)">
      <path d="M-6.168,-6.168C-9.575,-6.168 -12.337,-3.406 -12.337,0C-12.337,3.408 -9.575,6.168 -6.168,6.168C-2.761,6.168 0,3.408 0,0C0,-3.406 -2.761,-6.168 -6.168,-6.168"/>
  </g>
  <g transform="matrix(0,1,1,0,504.469,543.5897)">
      <path d="M8.812,-8.812C3.946,-8.812 0,-4.867 0,-0C0,4.867 3.946,8.812 8.812,8.812C13.679,8.812 17.625,4.867 17.625,-0C17.625,-4.867 13.679,-8.812 8.812,-8.812"/>
  </g>
  <g transform="matrix(0,1,1,0,504.4687,574.1815)">
      <path d="M6.168,-6.168C2.761,-6.168 -0,-3.406 -0,0C-0,3.408 2.761,6.168 6.168,6.168C9.575,6.168 12.337,3.408 12.337,0C12.337,-3.406 9.575,-6.168 6.168,-6.168"/>
  </g>
  <g transform="matrix(0,1,1,0,243.136,543.5897)">
      <path d="M8.812,-8.812C3.946,-8.812 0,-4.867 0,-0C0,4.867 3.946,8.812 8.812,8.812C13.679,8.812 17.625,4.867 17.625,-0C17.625,-4.867 13.679,-8.812 8.812,-8.812"/>
  </g>
  <g transform="matrix(0,1,1,0,243.1357,574.1815)">
      <path d="M6.168,-6.168C2.761,-6.168 -0,-3.406 -0,0C-0,3.408 2.761,6.168 6.168,6.168C9.575,6.168 12.337,3.408 12.337,0C12.337,-3.406 9.575,-6.168 6.168,-6.168"/>
  </g>
  <g transform="matrix(0,-1,-1,0,460.1789,429.4623)">
      <path d="M-8.812,-8.812C-13.679,-8.812 -17.625,-4.867 -17.625,-0C-17.625,4.867 -13.679,8.812 -8.812,8.812C-3.946,8.812 -0,4.867 -0,-0C-0,-4.867 -3.946,-8.812 -8.812,-8.812"/>
  </g>
  <g transform="matrix(0,-1,-1,0,462.8229,404.1585)">
      <path d="M-6.168,-6.168C-9.575,-6.168 -12.337,-3.406 -12.337,0C-12.337,3.408 -9.575,6.168 -6.168,6.168C-2.761,6.168 0,3.408 0,0C0,-3.406 -2.761,-6.168 -6.168,-6.168"/>
  </g>
  <g transform="matrix(0,1,1,0,460.1791,581.4744)">
      <path d="M8.812,-8.812C3.946,-8.812 0,-4.867 0,-0C0,4.867 3.946,8.812 8.812,8.812C13.679,8.812 17.625,4.867 17.625,-0C17.625,-4.867 13.679,-8.812 8.812,-8.812"/>
  </g>
  <g transform="matrix(0,1,1,0,460.1788,612.0663)">
      <path d="M6.168,-6.168C2.761,-6.168 -0,-3.406 -0,0C-0,3.408 2.761,6.168 6.168,6.168C9.575,6.168 12.337,3.408 12.337,0C12.337,-3.406 9.575,-6.168 6.168,-6.168"/>
  </g>
  <g transform="matrix(0,1,1,0,286.8138,581.4744)">
      <path d="M8.812,-8.812C3.946,-8.812 0,-4.867 0,-0C0,4.867 3.946,8.812 8.812,8.812C13.679,8.812 17.625,4.867 17.625,-0C17.625,-4.867 13.679,-8.812 8.812,-8.812"/>
  </g>
  <g transform="matrix(0,1,1,0,286.8135,612.0663)">
      <path d="M6.168,-6.168C2.761,-6.168 -0,-3.406 -0,0C-0,3.408 2.761,6.168 6.168,6.168C9.575,6.168 12.337,3.408 12.337,0C12.337,-3.406 9.575,-6.168 6.168,-6.168"/>
  </g>
  <g transform="matrix(0,-1,-1,0,416.9486,369.1654)">
      <path d="M-6.168,-6.168C-9.575,-6.168 -12.337,-3.406 -12.337,0C-12.337,3.408 -9.575,6.168 -6.168,6.168C-2.761,6.168 0,3.408 0,0C0,-3.406 -2.761,-6.168 -6.168,-6.168"/>
  </g>
  <g transform="matrix(0,1,1,0,416.9485,616.512)">
      <path d="M8.812,-8.812C3.946,-8.812 0,-4.867 0,-0C0,4.867 3.946,8.812 8.812,8.812C13.679,8.812 17.625,4.867 17.625,-0C17.625,-4.867 13.679,-8.812 8.812,-8.812"/>
  </g>
  <g transform="matrix(0,1,1,0,416.9482,647.1039)">
      <path d="M6.168,-6.168C2.761,-6.168 -0,-3.406 -0,0C-0,3.408 2.761,6.168 6.168,6.168C9.575,6.168 12.337,3.408 12.337,0C12.337,-3.406 9.575,-6.168 6.168,-6.168"/>
  </g>
  <g transform="matrix(0,1,1,0,330.3483,616.512)">
      <path d="M8.812,-8.812C3.946,-8.812 0,-4.867 0,-0C0,4.867 3.946,8.812 8.812,8.812C13.679,8.812 17.625,4.867 17.625,-0C17.625,-4.867 13.679,-8.812 8.812,-8.812"/>
  </g>
  <g transform="matrix(0,1,1,0,330.348,647.1039)">
      <path d="M6.168,-6.168C2.761,-6.168 -0,-3.406 -0,0C-0,3.408 2.761,6.168 6.168,6.168C9.575,6.168 12.337,3.408 12.337,0C12.337,-3.406 9.575,-6.168 6.168,-6.168"/>
  </g>
</svg>
