<svg xmlns="http://www.w3.org/2000/svg" viewBox="199.72 350.38 1520.93 378.7" fill="#fff" fill-rule="nonzero">
<g transform="matrix(1,0,0,1,1111.0178,510.1627)">
      <path d="M0,93.456L0,26.019L61.758,99.533L61.758,-1.397L50.245,-1.397L50.245,67.436L-11.339,-6.077L-11.339,93.456C-11.339,93.456 -1.167,93.733 0,93.456"/>
  </g>
  <g transform="matrix(1,0,0,1,1065.7433,449.6397)">
      <path d="M0,-0.63L21.805,-0.63L21.805,-9.666L0,-9.666L0,-22.211L27.649,-22.211L27.649,-31.246L-9.148,-31.246L-9.148,30.616L0,30.616L0,-0.63Z"/>
  </g>
  <g transform="matrix(-1,0,0,1,2118.76,32.21)">
      <rect x="1053.009" y="476.381" width="12.742" height="95.028"/>
  </g>
  <g transform="matrix(1,0,0,1,1459.0868,570.0397)">
      <path d="M0,-27.694C1.854,-32.017 4.413,-35.828 7.604,-39.02C10.796,-42.211 14.633,-44.769 19.012,-46.622C23.382,-48.471 28.102,-49.408 33.04,-49.408C37.859,-49.408 42.488,-48.472 46.799,-46.625C51.124,-44.771 54.967,-42.209 58.221,-39.011C61.469,-35.821 64.053,-32.014 65.906,-27.694C67.753,-23.383 68.69,-18.694 68.69,-13.76C68.69,-8.826 67.754,-4.169 65.909,0.082C64.059,4.342 61.473,8.122 58.221,11.317C54.964,14.516 51.123,17.077 46.8,18.93C42.489,20.778 37.859,21.715 33.04,21.715C28.102,21.715 23.382,20.777 19.012,18.928C14.635,17.076 10.797,14.518 7.604,11.326C4.408,8.129 1.849,4.345 -0.003,0.081C-1.849,-4.169 -2.784,-8.826 -2.784,-13.76C-2.784,-18.694 -1.847,-23.383 0,-27.694M-1.232,20.465C3.203,24.833 8.399,28.322 14.214,30.835C20.044,33.354 26.407,34.632 33.128,34.632C39.731,34.632 46.063,33.355 51.947,30.837C57.829,28.321 63.002,24.827 67.323,20.452C71.642,16.084 75.107,10.926 77.625,5.12C80.151,-0.698 81.432,-7.051 81.432,-13.76C81.432,-20.347 80.152,-26.669 77.628,-32.547C75.109,-38.41 71.644,-43.626 67.33,-48.052C63.002,-52.49 57.826,-56.015 51.947,-58.531C46.063,-61.049 39.731,-62.326 33.128,-62.326C26.407,-62.326 20.044,-61.048 14.214,-58.529C8.402,-56.016 3.203,-52.496 -1.238,-48.065C-5.674,-43.638 -9.203,-38.417 -11.725,-32.547C-14.247,-26.673 -15.526,-20.352 -15.526,-13.76C-15.526,-7.047 -14.247,-0.694 -11.722,5.12C-9.202,10.933 -5.672,16.096 -1.232,20.465"/>
  </g>
  <g transform="matrix(1,0,0,1,1583.8551,577.5992)">
      <path d="M0,-41.417L61.758,32.096L61.758,-68.833L50.245,-68.833L50.245,-0L-11.339,-73.513L-11.339,26.02L0,26.02L0,-41.417Z"/>
  </g>
  <g transform="matrix(1,0,0,1,1320.3959,508.5907)">
      <path d="M0,95.028L12.742,95.028L12.742,12.567L47.48,12.567L47.48,0L-35.089,0L-35.089,12.567L0,12.567L0,95.028Z"/>
  </g>
  <g transform="matrix(-1,0,0,1,2803.014,32.21)">
      <rect x="1395.136" y="476.381" width="12.742" height="95.028"/>
  </g>
  <g transform="matrix(1,0,0,1,780.3369,452.8079)">
      <path d="M0,-6.966C-0.956,-6.016 -2.115,-5.247 -3.444,-4.684C-4.767,-4.126 -6.176,-3.842 -7.633,-3.842L-17.277,-3.842L-17.277,-25.379L-7.633,-25.379C-6.179,-25.379 -4.771,-25.095 -3.445,-24.535C-2.123,-23.975 -0.969,-23.194 -0.017,-22.215C0.948,-21.219 1.724,-20.041 2.29,-18.717C2.851,-17.399 3.136,-15.96 3.136,-14.442C3.136,-13.002 2.854,-11.624 2.296,-10.349C1.732,-9.062 0.96,-7.924 0,-6.966M17.181,21.316C16.054,19.813 14.87,18.251 13.631,16.633C12.397,15.023 11.2,13.449 10.039,11.913C8.869,10.363 7.832,9.022 6.935,7.899L2.705,2.492C5.567,0.966 7.799,-1.178 9.351,-3.901C11.148,-7.054 12.059,-10.626 12.059,-14.518C12.059,-17.086 11.549,-19.589 10.545,-21.958C9.549,-24.304 8.176,-26.422 6.463,-28.253C4.737,-30.095 2.648,-31.596 0.252,-32.715C-2.17,-33.843 -4.822,-34.414 -7.633,-34.414L-26.2,-34.414L-26.2,27.448L-17.277,27.448L-17.277,5.418L-6.843,5.418L10.242,27.448L21.714,27.448L20.111,25.266C19.283,24.139 18.308,22.822 17.181,21.316"/>
  </g>
  <g transform="matrix(1,0,0,1,988.1342,458.0575)">
      <path d="M0,-17.353C1.163,-20.066 2.768,-22.455 4.768,-24.455C6.767,-26.454 9.173,-28.057 11.92,-29.219C14.659,-30.378 17.618,-30.966 20.714,-30.966C23.734,-30.966 26.635,-30.379 29.333,-29.222C32.048,-28.058 34.459,-26.452 36.5,-24.447C38.535,-22.446 40.156,-20.06 41.316,-17.354C42.473,-14.652 43.059,-11.714 43.059,-8.62C43.059,-5.528 42.473,-2.611 41.319,0.05C40.16,2.72 38.539,5.09 36.5,7.093C34.459,9.099 32.048,10.706 29.333,11.869C26.636,13.025 23.736,13.612 20.714,13.612C17.617,13.612 14.657,13.025 11.92,11.866C9.173,10.704 6.768,9.101 4.768,7.101C2.764,5.098 1.159,2.726 -0.003,0.051C-1.156,-2.611 -1.743,-5.528 -1.743,-8.62C-1.743,-11.714 -1.156,-14.652 0,-17.353M-1.587,13.656C1.296,16.495 4.676,18.765 8.458,20.4C12.255,22.041 16.398,22.873 20.771,22.873C25.066,22.873 29.188,22.042 33.02,20.402C36.847,18.764 40.215,16.49 43.027,13.643C45.837,10.8 48.092,7.445 49.728,3.671C51.373,-0.119 52.207,-4.254 52.207,-8.62C52.207,-12.909 51.375,-17.024 49.731,-20.851C48.094,-24.661 45.841,-28.053 43.034,-30.933C40.216,-33.822 36.847,-36.118 33.02,-37.755C29.188,-39.395 25.066,-40.226 20.771,-40.226C16.398,-40.226 12.255,-39.394 8.458,-37.753C4.677,-36.118 1.294,-33.827 -1.593,-30.946C-4.48,-28.066 -6.774,-24.67 -8.416,-20.851C-10.058,-17.029 -10.891,-12.914 -10.891,-8.62C-10.891,-4.249 -10.057,-0.113 -8.413,3.671C-6.773,7.453 -4.476,10.813 -1.587,13.656"/>
  </g>
  <g transform="matrix(1,0,0,1,735.7343,603.6189)">
      <path d="M0,-95.028L-12.742,-95.028L-12.742,0L51.408,0L51.408,-12.917L0,-12.917L0,-95.028Z"/>
  </g>
  <g transform="matrix(1,0,0,1,854.3278,427.6537)">
      <path d="M0,43.342L-32.933,43.342L-32.933,-9.26L-42.081,-9.26L-42.081,52.602L0,52.602L0,43.342Z"/>
  </g>
  <g transform="matrix(1,0,0,1,877.3887,545.9284)">
      <path d="M0,21.405C0,24.814 -0.665,28.019 -1.978,30.93C-3.298,33.854 -5.137,36.455 -7.446,38.66C-9.762,40.872 -12.529,42.637 -15.672,43.908C-18.814,45.181 -22.2,45.826 -25.737,45.826C-29.392,45.826 -32.838,45.181 -35.98,43.908C-39.135,42.633 -41.968,40.86 -44.403,38.638C-46.821,36.436 -48.744,33.836 -50.12,30.91C-51.484,28.014 -52.175,24.816 -52.175,21.405L-52.175,-37.338L-64.917,-37.338L-64.917,21.405C-64.917,26.496 -63.873,31.38 -61.813,35.919C-59.758,40.453 -56.907,44.437 -53.341,47.76C-49.796,51.068 -45.619,53.752 -40.922,55.739C-36.211,57.733 -31.132,58.743 -25.825,58.743C-20.634,58.743 -15.615,57.733 -10.904,55.739C-6.206,53.752 -2.08,51.062 1.357,47.744C4.797,44.426 7.582,40.447 9.636,35.919C11.696,31.371 12.742,26.488 12.742,21.405L12.742,-37.338L0,-37.338L0,21.405Z"/>
  </g>
  <g transform="matrix(1,0,0,1,906.8373,440.7962)">
      <path d="M0,17.058C-1.158,19.69 -2.736,21.998 -4.693,23.921C-6.654,25.848 -8.98,27.394 -11.609,28.516C-14.225,29.633 -17.079,30.199 -20.089,30.199L-30.932,30.199L-30.932,-13.367L-20.089,-13.367C-17.088,-13.367 -14.24,-12.783 -11.623,-11.632C-8.998,-10.476 -6.671,-8.877 -4.71,-6.88C-2.745,-4.878 -1.161,-2.527 0,0.11C1.15,2.723 1.732,5.575 1.732,8.585C1.732,11.593 1.15,14.445 0,17.058M10.655,8.641C10.655,4.429 9.843,0.39 8.242,-3.363C6.645,-7.099 4.432,-10.418 1.663,-13.227C-1.11,-16.037 -4.411,-18.292 -8.151,-19.927C-11.904,-21.57 -15.945,-22.402 -20.163,-22.402L-40.08,-22.402L-40.08,39.46L-20.163,39.46C-15.949,39.46 -11.911,38.647 -8.161,37.046C-4.423,35.45 -1.119,33.234 1.656,30.46C4.427,27.688 6.642,24.385 8.242,20.643C9.843,16.891 10.655,12.853 10.655,8.641"/>
  </g>
  <g transform="matrix(1,0,0,1,721.9511,433.6112)">
      <path d="M0,31.539C-2.041,33.545 -4.452,35.152 -7.167,36.315C-9.864,37.471 -12.765,38.059 -15.786,38.059C-18.883,38.059 -21.843,37.471 -24.58,36.312C-27.327,35.15 -29.732,33.547 -31.732,31.548C-33.736,29.545 -35.341,27.173 -36.503,24.497C-37.657,21.836 -38.243,18.918 -38.243,15.826C-38.243,12.733 -37.657,9.794 -36.5,7.093C-35.337,4.381 -33.732,1.991 -31.732,-0.009C-29.734,-2.008 -27.327,-3.611 -24.58,-4.773C-21.842,-5.932 -18.882,-6.519 -15.786,-6.519C-12.766,-6.519 -9.865,-5.932 -7.167,-4.776C-4.452,-3.612 -2.041,-2.006 0,-0C2.034,2 3.656,4.387 4.816,7.093C5.973,9.794 6.559,12.733 6.559,15.826C6.559,18.918 5.973,21.836 4.819,24.497C3.66,27.166 2.039,29.536 0,31.539M13.228,28.117C14.873,24.327 15.707,20.192 15.707,15.826C15.707,11.537 14.874,7.423 13.23,3.596C11.593,-0.215 9.34,-3.607 6.534,-6.487C3.716,-9.376 0.347,-11.672 -3.48,-13.309C-7.313,-14.948 -11.434,-15.78 -15.73,-15.78C-20.103,-15.78 -24.246,-14.948 -28.042,-13.307C-31.823,-11.672 -35.206,-9.381 -38.093,-6.5C-40.98,-3.62 -43.275,-0.223 -44.916,3.595C-46.558,7.417 -47.391,11.532 -47.391,15.826C-47.391,20.197 -46.557,24.333 -44.913,28.117C-43.273,31.899 -40.977,35.259 -38.088,38.102C-35.205,40.942 -31.825,43.211 -28.042,44.846C-24.246,46.487 -20.103,47.319 -15.73,47.319C-11.434,47.319 -7.313,46.488 -3.48,44.848C0.347,43.211 3.714,40.936 6.527,38.089C9.336,35.246 11.592,31.891 13.228,28.117"/>
  </g>
  <g transform="matrix(1,0,0,1,645.0287,603.6189)">
      <path d="M0,-95.028L-12.742,-95.028L-12.742,0L51.408,0L51.408,-12.917L0,-12.917L0,-95.028Z"/>
  </g>
  <g transform="matrix(1,0,0,1,942.4125,568.1075)">
      <path d="M0,-28.621L29.066,7.732L50.098,-18.357C51.726,-20.461 53.386,-22.592 55.077,-24.755C55.93,-25.846 56.774,-26.93 57.612,-28.005L57.612,31.372C62.752,30.874 67.333,30.486 70.355,30.256L70.355,-63.6L28.983,-12.429L-12.742,-64.132L-12.742,35.511L0,35.511L0,-28.621Z"/>
  </g>
  <g transform="matrix(1,0,0,1,0,32.21)">
      <rect x="587.548" y="476.381" width="12.742" height="95.028"/>
  </g>
  <g transform="matrix(1,0,0,1,667.4109,481.0642)">
      <path d="M0,-60.775L-9.089,-63.007L-9.573,-62.012C-12.256,-56.496 -14.869,-51.005 -17.338,-45.695C-18.388,-43.448 -19.491,-41.088 -20.653,-38.617C-21.816,-36.141 -22.959,-33.684 -24.085,-31.245C-25.211,-28.803 -26.281,-26.437 -27.297,-24.145C-27.822,-22.955 -28.304,-21.845 -28.746,-20.8C-29.861,-23.219 -30.862,-25.304 -31.734,-27.022C-32.941,-29.397 -34.005,-31.432 -34.899,-33.071C-35.793,-34.707 -36.556,-36.141 -37.188,-37.369C-37.73,-38.423 -38.266,-39.588 -38.78,-40.838L-30.977,-59.634L-39.972,-62.043L-40.416,-60.894C-40.786,-59.936 -41.228,-58.867 -41.747,-57.68C-42.173,-56.682 -42.67,-55.532 -43.232,-54.231L-43.318,-54.033C-43.529,-53.545 -43.745,-53.041 -43.964,-52.521L-47.883,-62.042L-56.75,-59.624L-48.833,-40.951C-50.502,-36.999 -51.927,-33.779 -53.074,-31.375C-54.24,-28.934 -55.268,-26.895 -56.13,-25.318L-58.32,-21.331C-58.513,-20.982 -58.707,-20.618 -58.901,-20.24L-78.72,-63.017L-87.715,-60.768L-58.865,2.242L-57.655,-0.636C-56.484,-3.423 -55.264,-6.144 -54.029,-8.725C-52.796,-11.303 -51.516,-13.881 -50.224,-16.389C-48.914,-18.939 -47.618,-21.493 -46.341,-24.045C-45.481,-25.767 -44.627,-27.578 -43.791,-29.456L-28.651,1.945L0,-60.775Z"/>
  </g>
  <g transform="matrix(1,0,0,1,996.6163,625.2229)">
      <path d="M0,66.217C-3.747,66.217 -20.396,68.565 -31.505,71.064C-31.979,71.167 -32.516,67.768 -32.277,67.345C-28.695,60.998 -25.071,54.975 -21.507,49.445C-21.396,49.275 -21.246,49.134 -21.07,49.037C-2.652,38.819 24.315,36.478 27.747,36.478C29.495,36.478 30.278,35.836 30.278,35.199C30.278,35.037 30.182,34.858 30.081,34.669C28.506,32.682 23.916,29.32 21.754,29.32C18.524,29.32 3.648,30.781 -7.888,32.514C-8.363,32.579 -8.856,32.365 -9.113,31.95C-9.372,31.534 -9.36,31.005 -9.084,30.601C-0.25,17.742 9.048,3.655 14.221,-2.928C14.413,-3.171 14.687,-3.333 14.992,-3.382C18.198,-3.901 21.556,-4.433 24.887,-4.961C36.362,-6.779 48.229,-8.66 51.186,-9.61C51.635,-9.691 51.726,-10.21 51.726,-10.53C51.726,-10.986 51.594,-12.561 49.906,-13.689C44.276,-17.534 34.575,-16.389 34.575,-16.389C28.241,-16.242 -1.373,-14.101 -4.274,-12.838C-4.303,-12.787 -4.512,-12.309 -4.512,-11.178C-4.512,-9.796 -4.113,-7.818 -3.47,-6.017C-3.337,-5.646 -3.39,-5.234 -3.614,-4.908C-11.974,7.29 -44.047,58.562 -46.53,65.602C-47.139,67.068 -47.436,68.55 -47.436,70.07C-47.436,75.911 -43.456,79.207 -42.236,80.079C-39.033,82.307 -35.7,83.751 -33.754,83.751C-33.466,83.751 -33.108,83.751 -32.999,83.721C-21.133,78.895 -10.934,77.12 -1.177,74.828C4.565,73.479 10.493,72.086 11.744,71.223C11.674,66.333 3.879,66.217 0,66.217"/>
  </g>
  <g transform="matrix(1,0,0,1,1372.0809,621.3754)">
      <path d="M0,15.241C6.684,15.241 10.933,11.08 11.175,7.057C11.281,5.425 10.769,3.959 9.696,2.812C7.971,0.972 4.907,0 0.833,0C-6.036,0 -10.479,2.604 -10.76,6.797C-10.916,8.564 -10.25,10.343 -8.891,11.828C-6.876,14.029 -3.718,15.241 0,15.241"/>
  </g>
  <g transform="matrix(1,0,0,1,1274.9453,623.7006)">
      <path d="M0,76.695C-1.146,76.695 -2.486,75.899 -2.486,73.654C-2.486,68.647 4.619,58.269 10.704,50.903C13.853,47.091 24.587,34.656 30.519,34.656C32.262,34.656 33.612,35.49 34.64,37.205C34.888,37.616 34.873,38.134 34.602,38.53C28.492,47.484 7.938,76.695 0,76.695M-141.08,58.466C-138.741,55.047 -124.121,36.467 -115.675,36.467C-114.577,36.467 -113.751,37.296 -113.751,38.395C-113.751,40.969 -118.175,46.44 -122.284,50.434C-125.39,53.45 -133.253,60.393 -139.834,60.393C-139.922,60.393 -140.011,60.392 -140.1,60.39C-140.549,60.376 -140.955,60.118 -141.159,59.718C-141.364,59.317 -141.332,58.837 -141.08,58.466M-50.068,64.215C-50.17,64.369 -50.261,64.507 -50.363,64.661C-57.297,71.294 -66.762,79.204 -72.475,79.204C-74.989,79.204 -76.49,77.806 -76.49,75.465C-76.49,66.392 -55.461,41.373 -47.208,34.39C-46.303,33.584 -45.832,32.439 -45.832,31.009C-45.832,27.895 -49.106,21.089 -51.57,21.089C-51.671,21.089 -51.82,21.089 -51.863,21.102C-51.985,21.162 -52.108,21.199 -52.245,21.217C-52.708,21.279 -53.537,21.425 -54.608,21.614C-58.528,22.303 -65.084,23.457 -69.826,23.457L-70.942,23.457C-71.387,23.457 -71.797,23.217 -72.016,22.829C-72.232,22.44 -72.223,21.966 -71.992,21.586C-70.037,18.392 -68.824,15.38 -68.824,13.725C-68.824,13.074 -68.944,12.843 -70.265,12.865C-77.026,12.865 -81.993,20.437 -85.627,25.976L-86.08,26.668C-86.883,27.871 -87.272,29.288 -87.272,31.009C-87.272,31.914 -87.156,32.751 -87.046,33.559C-86.943,34.304 -86.854,34.987 -86.854,35.606C-86.854,35.897 -86.916,36.143 -86.959,36.322C-86.959,36.473 -87.02,36.745 -87.075,36.884C-87.872,38.964 -100.267,57.207 -105.568,63.052L-105.731,63.237C-116.948,75.866 -128.123,82.269 -138.95,82.269C-146.811,82.269 -147.985,77.569 -147.985,74.768C-147.985,73.188 -147.586,71.268 -146.796,69.059C-146.621,68.569 -146.157,68.242 -145.639,68.242L-145.223,68.242C-145.149,68.243 -145.072,68.243 -144.995,68.243C-134.701,68.243 -120.646,61.969 -112.178,53.577C-106.973,48.421 -104.223,42.833 -104.223,37.419C-104.223,34.07 -106.06,31.43 -107.682,29.1C-108.076,28.533 -108.448,27.995 -108.772,27.482C-112.72,21.629 -113.398,21.089 -116.791,21.089C-128.499,21.351 -157.698,52.819 -157.921,65.429C-157.927,65.77 -158.038,66.073 -158.284,66.31C-164.182,72.005 -174.974,81.572 -180.898,81.572C-184.064,81.572 -186.031,79.498 -186.031,76.161C-186.031,68.119 -157.063,27.505 -143.11,8.843C-142.652,8.23 -141.943,7.886 -141.178,7.886L-18.07,7.886C-17.108,7.886 -16.531,8.952 -17.076,9.744C-21.601,16.34 -31.647,31.217 -31.866,31.548C-38.095,40.943 -46.308,54.236 -50.068,64.215M255.554,58.466C257.893,55.047 272.512,36.467 280.959,36.467C282.057,36.467 282.883,37.296 282.883,38.395C282.883,40.969 278.459,46.44 274.35,50.434C271.244,53.45 263.381,60.393 256.8,60.393C256.712,60.393 256.623,60.392 256.534,60.39C256.085,60.376 255.679,60.118 255.475,59.718C255.271,59.317 255.302,58.837 255.554,58.466M428.017,5.063L427.035,2.237C426.738,1.382 425.932,0.809 425.027,0.809L408.989,0.809C408.391,0.809 408.064,0.114 408.453,-0.341C409.316,-1.351 410.375,-2.686 410.375,-3.2C410.375,-5.457 401.606,-11.309 399.063,-11.309C398.69,-11.309 398.006,-11.208 397.622,-10.532C396.953,-9.34 394.07,-5.047 391.036,-0.61C390.428,0.279 389.419,0.809 388.342,0.809L116.102,0.809C115.539,0.809 115.089,1.269 115.119,1.83C115.191,3.159 115.076,5.259 114.861,6.666C114.763,7.312 115.256,7.886 115.91,7.886L379.881,7.886C382.116,7.886 383.442,10.383 382.182,12.229C377.237,19.478 369.285,31.254 369.091,31.548C362.369,41.687 353.648,55.864 350.276,65.824L350.151,66.308C350.096,66.504 349.995,66.685 349.853,66.832C345.064,71.84 338.56,77.811 334.756,77.811C333.766,77.897 332.741,77.524 331.943,76.784C331.002,75.911 330.461,74.618 330.461,73.234C330.461,67.397 338.483,54.062 352.473,36.65C353.4,35.488 353.871,34.575 353.871,33.936C353.871,31.965 346.363,25.828 343.954,25.828C343.349,25.828 342.648,25.969 341.618,26.998C339.936,28.953 328.302,41.711 318.04,52.968C312.547,58.991 307.35,64.691 304.03,68.348C303.596,68.828 302.863,68.888 302.359,68.487C301.852,68.086 301.739,67.362 302.104,66.827C307.708,58.628 321.94,35.763 323.249,33.58C323.564,33.056 323.631,32.574 323.631,32.262C323.631,30.665 316.226,25.688 313.851,25.688C313.073,25.688 312.011,25.955 310.712,28.036C309.604,29.794 298.504,49.167 290.778,63.316C290.674,63.439 290.586,63.543 290.482,63.666C289.604,64.358 288.45,65.444 287.113,66.701C280.921,72.524 270.56,82.269 257.687,82.269C249.823,82.269 248.649,77.569 248.649,74.768C248.649,73.188 249.048,71.268 249.838,69.059C250.013,68.569 250.477,68.242 250.995,68.242L251.413,68.242C266.859,68.242 292.411,53.837 292.411,37.419C292.411,34.07 290.573,31.43 288.952,29.1C288.558,28.533 288.186,27.995 287.862,27.482C283.916,21.629 283.239,21.089 279.843,21.089C267.944,21.354 238.706,52.949 238.706,65.57C238.706,65.866 238.718,66.143 238.73,66.42C238.744,66.784 238.607,67.358 238.338,67.603C232.437,72.981 225.237,79.543 220.388,79.76L220.383,79.76C217.47,79.76 215.896,78.184 215.896,75.325C215.57,66.601 236.667,41.816 244.391,33.78C244.513,33.604 244.715,32.8 244.614,31.999C244.604,30.357 244.17,29.252 243.752,29.041C242.505,28.241 241.53,27.251 240.589,26.293C239.188,24.873 237.747,23.523 236.559,23.596L236.273,23.598C233.165,25.021 203.907,51.896 190.109,65.2C189.648,65.647 188.92,65.661 188.442,65.236C187.962,64.81 187.887,64.087 188.274,63.576C191.329,59.523 196.807,52.813 201.637,46.894C205.574,42.072 209.64,37.092 210.262,36.124C210.37,35.671 210.461,35.266 210.461,34.911C210.36,32.634 201.265,24.991 198.592,24.991C198.068,24.991 197.494,25.341 196.673,26.164C194.024,29.26 168.606,55.183 161.243,62.012C160.767,62.454 160.025,62.448 159.554,61.998C159.086,61.546 159.05,60.806 159.473,60.312C165.482,53.274 181.086,32.08 181.766,30.839C181.938,30.486 182.034,30.118 182.034,29.753C181.929,26.997 175.468,23.309 172.344,23.178C171.525,23.114 170.403,23.246 169.257,25.103C166.263,30.202 156.142,45.858 139.187,71.619C139.116,71.702 139.039,71.792 138.967,71.875C134.513,75.87 131.27,77.811 129.05,77.811C128.063,77.897 127.035,77.524 126.237,76.784C125.296,75.911 124.756,74.618 124.756,73.234C124.756,67.399 132.777,54.065 146.767,36.65C147.697,35.488 148.168,34.575 148.168,33.936C148.168,31.965 140.66,25.828 138.249,25.828C137.646,25.828 136.944,25.969 135.909,27C134.211,28.974 122.419,41.908 112.012,53.321C106.639,59.213 101.581,64.763 98.324,68.348C97.89,68.828 97.155,68.888 96.653,68.487C96.144,68.086 96.033,67.361 96.398,66.827C102.026,58.598 116.167,35.874 117.546,33.58C117.86,33.058 117.925,32.575 117.925,32.262C117.925,30.665 110.523,25.688 108.148,25.688C107.369,25.688 106.308,25.955 105.009,28.036C103.829,29.904 92.03,50.521 84.357,64.631C84.29,64.722 84.232,64.798 84.165,64.888C79.31,69.68 67.315,80.874 61.179,80.874C60.221,80.874 59.253,80.063 59.253,78.251C59.709,72.115 72.21,49.895 88.554,31.583C89.611,30.39 89.842,29.619 89.926,29.022C89.926,29.004 89.918,28.531 89.047,27.58C86.539,24.844 80.621,22.064 78.738,22.064C77.972,22.064 76.882,22.34 75.261,24.499C61.533,42.493 53.412,55.915 50.429,65.538C50.328,65.711 50.232,65.878 50.132,66.051C42.451,74.408 36.18,78.645 31.494,78.645C29.292,78.645 26.921,76.777 26.921,72.676C26.921,68.983 48.229,41.13 51.407,38.068C52.094,37.379 52.423,36.592 52.423,35.606C52.423,31.862 47.564,27.081 43.757,27.081C42.746,27.081 41.956,27.468 41.197,28.335C40.673,28.993 39.509,30.769 38.118,33.044C37.868,33.452 37.397,33.685 36.929,33.624C36.453,33.57 36.052,33.245 35.901,32.791C34.904,29.8 33.427,27.952 32.462,27.277C29.051,24.362 26.518,23.039 24.387,23.039C23.494,23.039 22.511,23.407 21.474,23.797C14.227,26.905 -7.152,46.352 -12.187,64.024C-12.275,64.178 -12.349,64.307 -12.438,64.461C-16.376,68.404 -30.053,81.572 -36.934,81.572C-40.099,81.572 -42.064,79.498 -42.064,76.161C-42.064,65.776 -25.057,41.554 -14.922,28.041C-14.715,27.765 -9.626,21.289 -9.336,20.915C-6.612,17.413 -2.996,12.912 0.285,8.936C0.839,8.265 1.658,7.886 2.527,7.886L78.516,7.886C79.126,7.886 79.599,7.329 79.469,6.733C79.31,5.999 79.502,3.301 79.799,1.739C79.891,1.253 79.506,0.809 79.012,0.809L9.766,0.809C8.791,0.809 8.265,-0.321 8.881,-1.077C9.57,-1.923 10.201,-2.804 10.201,-3.2C10.201,-5.457 1.433,-11.309 -1.111,-11.309C-1.483,-11.309 -2.168,-11.208 -2.552,-10.532C-3.239,-9.307 -6.569,-4.803 -9.924,-0.236C-10.407,0.421 -11.173,0.809 -11.988,0.809L-135.03,0.809C-135.799,0.809 -136.221,-0.08 -135.738,-0.677C-134.914,-1.696 -134.022,-2.888 -134.022,-3.367C-134.022,-5.625 -142.793,-11.477 -145.336,-11.477C-145.709,-11.477 -146.391,-11.376 -146.775,-10.7C-147.446,-9.503 -150.548,-5.111 -153.749,-0.606C-154.38,0.282 -155.402,0.809 -156.492,0.809L-215.661,0.809C-217.124,0.809 -218.149,2.251 -217.669,3.633L-216.687,6.458C-216.39,7.313 -215.584,7.886 -214.68,7.886L-162.901,7.886C-161.562,7.886 -160.754,9.365 -161.494,10.482C-168.871,21.623 -191.668,57.027 -194.646,65.824L-194.771,66.308C-194.826,66.504 -194.927,66.685 -195.069,66.832C-199.858,71.84 -206.364,77.811 -210.168,77.811C-211.16,77.897 -212.183,77.524 -212.981,76.784C-213.922,75.911 -214.463,74.618 -214.463,73.234C-214.463,67.399 -206.441,54.065 -192.451,36.65C-191.521,35.488 -191.051,34.575 -191.051,33.936C-191.051,31.965 -198.558,25.828 -200.967,25.828C-201.573,25.828 -202.274,25.969 -203.309,27C-205.007,28.975 -216.812,41.924 -227.23,53.348C-232.593,59.23 -237.642,64.768 -240.894,68.348C-241.328,68.828 -242.061,68.888 -242.565,68.487C-243.074,68.086 -243.185,67.361 -242.82,66.827C-237.193,58.598 -223.051,35.874 -221.673,33.58C-221.358,33.058 -221.293,32.575 -221.293,32.262C-221.293,30.665 -228.695,25.688 -231.071,25.688C-231.849,25.688 -232.91,25.955 -234.21,28.036C-236.311,31.364 -259.447,72.048 -261.412,77.422C-261.522,77.66 -261.616,78.017 -261.616,78.251C-261.616,81.377 -256.279,85.523 -252.256,85.523C-251.214,85.082 -246.11,79.079 -241.609,73.783C-233.441,64.174 -223.277,52.215 -215.731,47.13C-215.229,46.79 -214.549,46.87 -214.136,47.319C-213.725,47.77 -213.706,48.452 -214.09,48.925C-219.247,55.27 -225.244,66.906 -225.244,72.398C-225.244,76.457 -224.17,79.743 -222.218,81.65C-220.866,82.974 -219.105,83.635 -217.025,83.572C-208.509,83.572 -201.044,77.091 -197.348,73.227C-197.036,72.901 -196.577,72.774 -196.135,72.891C-195.7,73.01 -195.364,73.358 -195.261,73.797C-194.708,76.168 -193.332,78.383 -191.058,80.571C-187.318,84.185 -183.812,85.94 -180.341,85.94C-173.479,85.94 -163.93,77.245 -158.851,72.062C-158.555,71.763 -158.13,71.631 -157.719,71.72C-157.309,71.805 -156.97,72.094 -156.821,72.486C-155.748,75.318 -154.013,77.08 -152.339,78.786C-151.775,79.359 -151.225,79.921 -150.711,80.504C-146.076,85.703 -139.922,88.032 -135.885,88.032C-116.89,88.032 -94.734,56.769 -84.087,41.745C-82.339,39.281 -80.869,37.205 -79.725,35.701C-79.444,35.332 -78.981,35.152 -78.527,35.234C-77.103,35.492 -70.978,35.492 -67.318,35.492C-66.831,35.492 -66.391,35.779 -66.194,36.223C-65.997,36.668 -66.081,37.188 -66.408,37.548L-67.359,38.596C-75.4,47.447 -87.55,60.822 -87.55,72.676C-87.55,80.453 -79.961,86.081 -74.843,86.081C-69.931,86.081 -61.158,80.526 -53.511,72.571C-53.191,72.236 -52.716,72.109 -52.264,72.248C-51.822,72.384 -51.493,72.756 -51.414,73.214C-50.962,75.8 -49.55,78.207 -47.091,80.571C-43.354,84.185 -39.849,85.94 -36.377,85.94C-29.57,85.94 -20.11,77.367 -15.076,72.257C-14.768,71.948 -14.319,71.824 -13.906,71.926C-13.483,72.03 -13.15,72.348 -13.022,72.762C-12.696,73.838 -12.021,74.512 -11.086,75.445C-10.027,76.5 -8.714,77.814 -7.664,80.109C-5.798,84.465 -3.521,84.827 -1.535,84.827C1.376,84.827 7.45,81.015 13.944,75.112C14.173,74.903 14.468,74.793 14.771,74.793C14.893,74.793 15.016,74.811 15.136,74.848C15.551,74.978 15.868,75.318 15.969,75.742C17.055,80.384 20.067,88.172 28.009,88.172C32.724,88.172 40.193,83.165 47.506,75.106C47.807,74.776 48.263,74.634 48.698,74.735C49.135,74.838 49.478,75.169 49.601,75.6C51.203,81.302 56.585,85.94 61.597,85.94C64.559,85.94 69.588,83.242 75.755,78.343C76.082,78.08 76.524,78.005 76.918,78.142C77.314,78.278 77.614,78.606 77.713,79.013C78.477,82.116 83.316,85.523 86.962,85.523C88.004,85.082 93.106,79.08 97.606,73.785C105.775,64.175 115.939,52.215 123.485,47.13C123.987,46.79 124.669,46.87 125.08,47.319C125.49,47.769 125.51,48.452 125.125,48.925C119.969,55.272 113.974,66.908 113.974,72.398C113.974,76.457 115.048,79.743 117,81.65C118.353,82.974 120.113,83.635 122.193,83.572C126.285,83.572 130.563,82.083 134.937,79.147C135.225,78.955 135.583,78.891 135.916,78.974C136.253,79.058 136.541,79.279 136.704,79.585C138.191,82.352 142.026,85.248 145.434,85.248C145.49,85.248 145.545,85.248 145.603,85.245C146.837,84.828 152.306,78.496 157.597,72.371C167.35,61.078 180.709,45.611 191.377,38.754C191.862,38.438 192.504,38.506 192.919,38.924C193.327,39.338 193.39,39.982 193.068,40.466L190.813,43.862C184.816,52.884 170.77,74.013 170.557,76.733C170.66,79.426 174.899,83.852 179.282,83.852C179.342,83.852 179.402,83.852 179.465,83.85C181.019,83.363 188.786,74.585 195.025,67.531C202.456,59.13 210.877,49.608 216.211,45.247C216.687,44.86 217.378,44.88 217.83,45.301C218.279,45.722 218.349,46.41 217.991,46.912C211.381,56.19 206.105,67.733 206.232,72.644C206.364,76.569 207.586,79.722 209.762,81.754C211.777,83.635 214.506,84.519 217.921,84.409C222.062,84.24 228.667,82.861 238.1,72.88C238.381,72.581 238.783,72.443 239.2,72.511C239.604,72.581 239.947,72.846 240.115,73.221C241.194,75.627 242.769,77.232 244.295,78.783C244.859,79.357 245.411,79.921 245.925,80.504C250.561,85.703 256.712,88.032 260.749,88.032C265.732,88.032 273.879,84.264 281.505,78.433C281.829,78.183 282.256,78.11 282.648,78.245C283.037,78.377 283.332,78.694 283.44,79.091C284.262,82.157 289.092,85.523 292.668,85.523C293.71,85.082 298.809,79.082 303.31,73.788C311.478,64.177 321.642,52.217 329.191,47.13C329.695,46.79 330.375,46.87 330.786,47.319C331.196,47.769 331.216,48.452 330.831,48.925C325.675,55.272 319.68,66.908 319.68,72.398C319.68,76.458 320.754,79.744 322.704,81.651C324.058,82.976 325.836,83.636 327.896,83.572C336.413,83.572 343.878,77.091 347.574,73.227C347.886,72.901 348.347,72.774 348.787,72.891C349.221,73.01 349.558,73.358 349.661,73.797C350.213,76.168 351.589,78.385 353.866,80.571C357.603,84.185 361.108,85.94 364.58,85.94C367.678,85.94 371.322,84.173 374.869,81.741C376.224,80.812 381.312,77.036 379.721,75.444C378.13,73.853 374.231,76.914 372.933,77.783C369.602,80.012 366.418,81.572 364.023,81.572C360.858,81.572 358.893,79.498 358.893,76.161C358.893,65.776 375.9,41.554 386.035,28.041C386.242,27.765 391.331,21.289 391.622,20.915C394.343,17.416 397.785,12.921 400.882,8.947C401.409,8.271 402.212,7.886 403.069,7.886L426.009,7.886C427.471,7.886 428.497,6.444 428.017,5.063"/>
  </g>
  <g transform="matrix(1,0,0,1,1228.6141,549.5969)">
      <path d="M0,8.997C1.035,6.106 1.99,3.49 2.85,1.199C3.903,-1.611 4.838,-4.126 5.659,-6.353C6.475,-8.571 7.235,-10.615 7.938,-12.486C8.205,-13.199 8.473,-13.904 8.74,-14.601C10.275,-10.594 11.767,-6.813 13.192,-3.326C14.762,0.527 16.38,4.664 18.01,8.997L0,8.997ZM40.648,49.533C43.014,48.776 46.091,49.33 48.858,50.34L48.802,50.202C42.485,34.762 36.021,19.031 29.414,3.003C22.797,-13.036 16.272,-28.567 10.019,-43.157L8.734,-46.155L-31.705,52.004L-19.566,55.152L-11.824,36.959C-9.434,31.347 -7.123,25.862 -4.89,20.511L22.948,20.511L36.721,52.319C37.941,51.043 39.295,49.966 40.648,49.533"/>
  </g>
  <g transform="matrix(1,0,0,1,312.8072,424.3897)">
      <path d="M0,176.4C-4.783,176.4 -8.66,172.523 -8.66,167.74L-8.66,8.661C-8.66,3.878 -4.783,0 0,0C4.783,0 8.66,3.878 8.66,8.661L8.66,167.74C8.66,172.523 4.783,176.4 0,176.4"/>
  </g>
  <g transform="matrix(1,0,0,1,269.5765,459.5771)">
      <path d="M0,109.814C-4.783,109.814 -8.66,105.937 -8.66,101.154L-8.66,8.661C-8.66,3.878 -4.783,0 0,0C4.783,0 8.66,3.878 8.66,8.661L8.66,101.154C8.66,105.937 4.783,109.814 0,109.814"/>
  </g>
  <g transform="matrix(1,0,0,1,225.5905,497.0518)">
      <path d="M0,32.728C-4.783,32.728 -8.66,28.851 -8.66,24.068L-8.66,8.661C-8.66,3.878 -4.783,0 0,0C4.783,0 8.66,3.878 8.66,8.661L8.66,24.068C8.66,28.851 4.783,32.728 0,32.728"/>
  </g>
  <g transform="matrix(1,0,0,1,399.4073,600.79)">
      <path d="M0,-176.4C4.783,-176.4 8.66,-172.523 8.66,-167.74L8.66,-8.661C8.66,-3.878 4.783,0 0,0C-4.783,0 -8.66,-3.878 -8.66,-8.661L-8.66,-167.74C-8.66,-172.523 -4.783,-176.4 0,-176.4"/>
  </g>
  <g transform="matrix(1,0,0,1,356.8648,632.3283)">
      <path d="M0,-113.345C4.783,-113.345 8.66,-109.468 8.66,-104.685L8.66,-8.66C8.66,-3.877 4.783,0 0,0C-4.783,0 -8.66,-3.877 -8.66,-8.66L-8.66,-104.685C-8.66,-109.468 -4.783,-113.345 0,-113.345"/>
  </g>
  <g transform="matrix(1,0,0,1,442.638,565.6025)">
      <path d="M0,-109.814C4.783,-109.814 8.66,-105.937 8.66,-101.154L8.66,-8.661C8.66,-3.878 4.783,0 0,0C-4.783,0 -8.66,-3.878 -8.66,-8.661L-8.66,-101.154C-8.66,-105.937 -4.783,-109.814 0,-109.814"/>
  </g>
  <g transform="matrix(1,0,0,1,486.9279,528.1278)">
      <path d="M0,-32.728C4.783,-32.728 8.66,-28.851 8.66,-24.068L8.66,-8.661C8.66,-3.878 4.783,0 0,0C-4.783,0 -8.66,-3.878 -8.66,-8.661L-8.66,-24.068C-8.66,-28.851 -4.783,-32.728 0,-32.728"/>
  </g>
  <g transform="matrix(0,-1,-1,0,312.959,392.8951)">
      <path d="M-8.812,-8.812C-13.679,-8.812 -17.625,-4.867 -17.625,-0C-17.625,4.867 -13.679,8.812 -8.812,8.812C-3.946,8.812 -0,4.867 -0,-0C-0,-4.867 -3.946,-8.812 -8.812,-8.812"/>
  </g>
  <g transform="matrix(0,-1,-1,0,399.5592,392.8951)">
      <path d="M-8.812,-8.812C-13.679,-8.812 -17.625,-4.867 -17.625,-0C-17.625,4.867 -13.679,8.812 -8.812,8.812C-3.946,8.812 -0,4.867 -0,-0C-0,-4.867 -3.946,-8.812 -8.812,-8.812"/>
  </g>
  <g transform="matrix(0,-1,-1,0,312.9593,367.5913)">
      <path d="M-6.168,-6.168C-9.575,-6.168 -12.337,-3.406 -12.337,0C-12.337,3.408 -9.575,6.168 -6.168,6.168C-2.761,6.168 0,3.408 0,0C0,-3.406 -2.761,-6.168 -6.168,-6.168"/>
  </g>
  <g transform="matrix(0,-1,-1,0,269.6567,427.8882)">
      <path d="M-8.812,-8.812C-13.679,-8.812 -17.625,-4.867 -17.625,-0C-17.625,4.867 -13.679,8.812 -8.812,8.812C-3.946,8.812 -0,4.867 -0,-0C-0,-4.867 -3.946,-8.812 -8.812,-8.812"/>
  </g>
  <g transform="matrix(0,-1,-1,0,269.657,402.5844)">
      <path d="M-6.168,-6.168C-9.575,-6.168 -12.337,-3.406 -12.337,0C-12.337,3.408 -9.575,6.168 -6.168,6.168C-2.761,6.168 0,3.408 0,0C0,-3.406 -2.761,-6.168 -6.168,-6.168"/>
  </g>
  <g transform="matrix(0,-1,-1,0,225.7467,465.9206)">
      <path d="M-8.812,-8.812C-13.679,-8.812 -17.625,-4.867 -17.625,-0C-17.625,4.867 -13.679,8.812 -8.812,8.812C-3.946,8.812 -0,4.867 -0,-0C-0,-4.867 -3.946,-8.812 -8.812,-8.812"/>
  </g>
  <g transform="matrix(0,-1,-1,0,225.747,440.6168)">
      <path d="M-6.168,-6.168C-9.575,-6.168 -12.337,-3.406 -12.337,0C-12.337,3.408 -9.575,6.168 -6.168,6.168C-2.761,6.168 0,3.408 0,0C0,-3.406 -2.761,-6.168 -6.168,-6.168"/>
  </g>
  <g transform="matrix(0,-1,-1,0,487.0797,465.9206)">
      <path d="M-8.812,-8.812C-13.679,-8.812 -17.625,-4.867 -17.625,-0C-17.625,4.867 -13.679,8.812 -8.812,8.812C-3.946,8.812 -0,4.867 -0,-0C-0,-4.867 -3.946,-8.812 -8.812,-8.812"/>
  </g>
  <g transform="matrix(0,-1,-1,0,487.08,440.6168)">
      <path d="M-6.168,-6.168C-9.575,-6.168 -12.337,-3.406 -12.337,0C-12.337,3.408 -9.575,6.168 -6.168,6.168C-2.761,6.168 0,3.408 0,0C0,-3.406 -2.761,-6.168 -6.168,-6.168"/>
  </g>
  <g transform="matrix(0,1,1,0,487.0799,542.0156)">
      <path d="M8.812,-8.812C3.946,-8.812 0,-4.867 0,-0C0,4.867 3.946,8.812 8.812,8.812C13.679,8.812 17.625,4.867 17.625,-0C17.625,-4.867 13.679,-8.812 8.812,-8.812"/>
  </g>
  <g transform="matrix(0,1,1,0,487.0796,572.6074)">
      <path d="M6.168,-6.168C2.761,-6.168 -0,-3.406 -0,0C-0,3.408 2.761,6.168 6.168,6.168C9.575,6.168 12.337,3.408 12.337,0C12.337,-3.406 9.575,-6.168 6.168,-6.168"/>
  </g>
  <g transform="matrix(0,1,1,0,225.7469,542.0156)">
      <path d="M8.812,-8.812C3.946,-8.812 0,-4.867 0,-0C0,4.867 3.946,8.812 8.812,8.812C13.679,8.812 17.625,4.867 17.625,-0C17.625,-4.867 13.679,-8.812 8.812,-8.812"/>
  </g>
  <g transform="matrix(0,1,1,0,225.7467,572.6074)">
      <path d="M6.168,-6.168C2.761,-6.168 -0,-3.406 -0,0C-0,3.408 2.761,6.168 6.168,6.168C9.575,6.168 12.337,3.408 12.337,0C12.337,-3.406 9.575,-6.168 6.168,-6.168"/>
  </g>
  <g transform="matrix(0,-1,-1,0,442.7898,427.8882)">
      <path d="M-8.812,-8.812C-13.679,-8.812 -17.625,-4.867 -17.625,-0C-17.625,4.867 -13.679,8.812 -8.812,8.812C-3.946,8.812 -0,4.867 -0,-0C-0,-4.867 -3.946,-8.812 -8.812,-8.812"/>
  </g>
  <g transform="matrix(0,-1,-1,0,445.4338,402.5844)">
      <path d="M-6.168,-6.168C-9.575,-6.168 -12.337,-3.406 -12.337,0C-12.337,3.408 -9.575,6.168 -6.168,6.168C-2.761,6.168 0,3.408 0,0C0,-3.406 -2.761,-6.168 -6.168,-6.168"/>
  </g>
  <g transform="matrix(0,1,1,0,442.79,579.9004)">
      <path d="M8.812,-8.812C3.946,-8.812 0,-4.867 0,-0C0,4.867 3.946,8.812 8.812,8.812C13.679,8.812 17.625,4.867 17.625,-0C17.625,-4.867 13.679,-8.812 8.812,-8.812"/>
  </g>
  <g transform="matrix(0,1,1,0,442.7897,610.4922)">
      <path d="M6.168,-6.168C2.761,-6.168 -0,-3.406 -0,0C-0,3.408 2.761,6.168 6.168,6.168C9.575,6.168 12.337,3.408 12.337,0C12.337,-3.406 9.575,-6.168 6.168,-6.168"/>
  </g>
  <g transform="matrix(0,1,1,0,269.4247,579.9004)">
      <path d="M8.812,-8.812C3.946,-8.812 0,-4.867 0,-0C0,4.867 3.946,8.812 8.812,8.812C13.679,8.812 17.625,4.867 17.625,-0C17.625,-4.867 13.679,-8.812 8.812,-8.812"/>
  </g>
  <g transform="matrix(0,1,1,0,269.4244,610.4922)">
      <path d="M6.168,-6.168C2.761,-6.168 -0,-3.406 -0,0C-0,3.408 2.761,6.168 6.168,6.168C9.575,6.168 12.337,3.408 12.337,0C12.337,-3.406 9.575,-6.168 6.168,-6.168"/>
  </g>
  <g transform="matrix(0,-1,-1,0,399.5595,367.5913)">
      <path d="M-6.168,-6.168C-9.575,-6.168 -12.337,-3.406 -12.337,0C-12.337,3.408 -9.575,6.168 -6.168,6.168C-2.761,6.168 0,3.408 0,0C0,-3.406 -2.761,-6.168 -6.168,-6.168"/>
  </g>
  <g transform="matrix(0,1,1,0,399.5594,614.938)">
      <path d="M8.812,-8.812C3.946,-8.812 0,-4.867 0,-0C0,4.867 3.946,8.812 8.812,8.812C13.679,8.812 17.625,4.867 17.625,-0C17.625,-4.867 13.679,-8.812 8.812,-8.812"/>
  </g>
  <g transform="matrix(0,1,1,0,399.5591,645.5298)">
      <path d="M6.168,-6.168C2.761,-6.168 -0,-3.406 -0,0C-0,3.408 2.761,6.168 6.168,6.168C9.575,6.168 12.337,3.408 12.337,0C12.337,-3.406 9.575,-6.168 6.168,-6.168"/>
  </g>
  <g transform="matrix(0,1,1,0,312.9592,614.938)">
      <path d="M8.812,-8.812C3.946,-8.812 0,-4.867 0,-0C0,4.867 3.946,8.812 8.812,8.812C13.679,8.812 17.625,4.867 17.625,-0C17.625,-4.867 13.679,-8.812 8.812,-8.812"/>
  </g>
  <g transform="matrix(0,1,1,0,312.9589,645.5298)">
      <path d="M6.168,-6.168C2.761,-6.168 -0,-3.406 -0,0C-0,3.408 2.761,6.168 6.168,6.168C9.575,6.168 12.337,3.408 12.337,0C12.337,-3.406 9.575,-6.168 6.168,-6.168"/>
  </g>
</svg>
